<svg width="46" height="48" viewBox="0 0 46 48" fill="none" xmlns="http://www.w3.org/2000/svg">
<path fill-rule="evenodd" clip-rule="evenodd" d="M25.9576 12.7597C26.3517 12.3462 27.0115 12.3462 27.4055 12.7597L28.7121 14.1309C29.0799 14.5169 29.0802 15.1235 28.7129 15.5098L20.6402 24L28.7129 32.4902C29.0802 32.8765 29.0799 33.4831 28.7121 33.8691L27.4055 35.2403C27.0115 35.6538 26.3517 35.6538 25.9576 35.2403L15.2467 24L25.9576 12.7597Z" fill="#FF4040"/>
<mask id="mask0_179_643" style="mask-type:luminance" maskUnits="userSpaceOnUse" x="15" y="12" width="14" height="24">
<path fill-rule="evenodd" clip-rule="evenodd" d="M25.9576 12.7597C26.3517 12.3462 27.0115 12.3462 27.4055 12.7597L28.7121 14.1309C29.0799 14.5169 29.0802 15.1235 28.7129 15.5098L20.6402 24L28.7129 32.4902C29.0802 32.8765 29.0799 33.4831 28.7121 33.8691L27.4055 35.2403C27.0115 35.6538 26.3517 35.6538 25.9576 35.2403L15.2467 24L25.9576 12.7597Z" fill="white"/>
</mask>
<g mask="url(#mask0_179_643)">
<rect width="45.7395" height="48" fill="#FF4040"/>
</g>
</svg>
