<svg width="25" height="24" viewBox="0 0 25 24" fill="none" xmlns="http://www.w3.org/2000/svg">
<path fill-rule="evenodd" clip-rule="evenodd" d="M6.77168 10.79C8.24468 13.62 10.6178 15.93 13.5127 17.38L15.7631 15.18C16.0393 14.91 16.4485 14.82 16.8065 14.94C17.9522 15.31 19.1899 15.51 20.4583 15.51C21.0209 15.51 21.4812 15.96 21.4812 16.51V20C21.4812 20.55 21.0209 21 20.4583 21C10.8531 21 3.06873 13.39 3.06873 4C3.06873 3.45 3.52904 3 4.09164 3H7.67185C8.23445 3 8.69477 3.45 8.69477 4C8.69477 5.25 8.89935 6.45 9.27783 7.57C9.39035 7.92 9.30852 8.31 9.0221 8.59L6.77168 10.79Z" fill="#FF4040"/>
</svg>
