<svg width="531" height="353" viewBox="0 0 531 353" fill="none" xmlns="http://www.w3.org/2000/svg">
<path d="M5.00001 352.5C4.69884 352.5 4.40505 352.47 4.12124 352.414L4.0242 352.905C3.36823 352.775 2.75839 352.517 2.22193 352.158L2.50009 351.742C2.00914 351.414 1.58634 350.991 1.25766 350.5L0.842179 350.778C0.483028 350.242 0.224945 349.632 0.0951723 348.976L0.585665 348.879C0.529517 348.595 0.5 348.301 0.5 348V347.003H0V345.009H0.5V343.015H0V341.02H0.5V339.026H0V337.032H0.5V335.038H0V333.044H0.5V331.049H0V329.055H0.5V327.061H0V325.067H0.5V323.073H0V321.078H0.5V319.084H0V317.09H0.5V315.096H0V313.102H0.5V311.108H0V309.113H0.5V307.119H0V305.125H0.5V303.131H0V301.137H0.5V299.142H0V297.148H0.5V295.154H0V293.16H0.5V291.166H0V289.172H0.5V287.177H0V285.183H0.5V283.189H0V281.195H0.5V279.201H0V277.206H0.5V275.212H0V273.218H0.5V271.224H0V269.23H0.5V267.235H0V265.241H0.5V263.247H0V261.253H0.5V259.259H0V257.265H0.5V255.27H0V253.276H0.5V251.282H0V249.288H0.5V247.294H0V245.299H0.5V243.305H0V241.311H0.5V239.317H0V237.323H0.5V235.328H0V233.334H0.5V231.34H0V229.346H0.5V227.352H0V225.358H0.5V223.363H0V221.369H0.5V219.375H0V217.381H0.5V215.387H0V213.392H0.5V211.398H0V209.404H0.5V207.41H0V205.416H0.5V203.421H0V201.427H0.5V199.433H0V197.439H0.5V195.445H0V193.451H0.5V191.456H0V189.462H0.5V187.468H0V185.474H0.5V183.48H0V181.485H0.5V179.491H0V177.497H0.5V175.503H0V173.509H0.5V171.515H0V169.52H0.5V167.526H0V165.532H0.5V163.538H0V161.544H0.5V159.549H0V157.555H0.5V155.561H0V153.567H0.5V151.573H0V149.578H0.5V147.584H0V145.59H0.5V143.596H0V141.602H0.5V139.608H0V137.613H0.5V135.619H0V133.625H0.5V131.631H0V129.637H0.5V127.642H0V125.648H0.5V123.654H0V121.66H0.5V119.666H0V117.671H0.5V115.677H0V113.683H0.5V111.689H0V109.695H0.5V107.701H0V105.706H0.5V103.712H0V101.718H0.5V99.7238H0V97.7296H0.5V95.7354H0V93.7412H0.5V91.7471H0V89.7529H0.5V87.7587H0V85.7646H0.5V83.7704H0V81.7762H0.5V79.7821H0V77.7879H0.5V75.7937H0V73.7995H0.5V71.8054H0V69.8112H0.5V67.817H0V65.8229H0.5V63.8287H0V61.8345H0.5V59.8403H0V57.8462H0.5V55.852H0V53.8578H0.5V51.8636H0V49.8695H0.5V47.8753H0V45.8811H0.5V43.887H0V41.8928H0.5V39.8986H0V37.9045H0.5V35.9103H0V33.9161H0.5V31.9219H0V29.9278H0.5V27.9336H0V25.9394H0.5V23.9453H0V21.9511H0.5V19.9569H0V17.9628H0.5V15.9686H0V13.9744H0.5V11.9802H0V9.98607H0.5V7.99188H0V5.99771H0.5V5.00001C0.5 4.69883 0.529517 4.40505 0.585664 4.12123L0.0951703 4.0242C0.224942 3.36822 0.483023 2.75839 0.842173 2.22193L1.25766 2.50009C1.58634 2.00914 2.00913 1.58634 2.50008 1.25766L2.22192 0.842176C2.75838 0.483025 3.36822 0.224943 4.02419 0.0951707L4.12122 0.585665C4.40504 0.529517 4.69883 0.5 5 0.5H6.00192V0H8.00577V0.5H10.0096V0H12.0135V0.5H14.0173V0H16.0212V0.5H18.025V0H20.0288V0.5H22.0327V0H24.0365V0.5H26.0404V0H28.0442V0.5H30.0481V0H32.0519V0.5H34.0558V0H36.0596V0.5H38.0634V0H40.0673V0.5H42.0711V0H44.075V0.5H46.0788V0H48.0827V0.5H50.0865V0H52.0904V0.5H54.0942V0H56.0981V0.5H58.1019V0H60.1057V0.5H62.1096V0H64.1134V0.5H66.1173V0H68.1211V0.5H70.125V0H72.1288V0.5H74.1327V0H76.1365V0.5H78.1404V0H80.1442V0.5H82.148V0H84.1519V0.5H86.1557V0H88.1596V0.5H90.1634V0H92.1673V0.5H94.1711V0H96.175V0.5H98.1788V0H100.183V0.5H102.186V0H104.19V0.5H106.194V0H108.198V0.5H110.202V0H112.206V0.5H114.21V0H116.213V0.5H118.217V0H120.221V0.5H122.225V0H124.229V0.5H126.233V0H128.236V0.5H130.24V0H132.244V0.5H134.248V0H136.252V0.5H138.256V0H140.26V0.5H142.263V0H144.267V0.5H146.271V0H148.275V0.5H150.279V0H152.283V0.5H154.286V0H156.29V0.5H158.294V0H160.298V0.5H162.302V0H164.306V0.5H166.31V0H168.313V0.5H170.317V0H172.321V0.5H174.325V0H176.329V0.5H178.333V0H180.336V0.5H182.34V0H184.344V0.5H186.348V0H188.352V0.5H190.356V0H192.36V0.5H194.363V0H196.367V0.5H198.371V0H200.375V0.5H202.379V0H204.383V0.5H206.386V0H208.39V0.5H210.394V0H212.398V0.5H214.402V0H216.406V0.5H218.41V0H220.413V0.5H222.417V0H224.421V0.5H226.425V0H228.429V0.5H230.433V0H232.436V0.5H234.44V0H236.444V0.5H238.448V0H240.452V0.5H242.456V0H244.46V0.5H246.463V0H248.467V0.5H250.471V0H252.475V0.5H254.479V0H256.483V0.5H258.486V0H260.49V0.5H262.494V0H264.498V0.5H266.502V0H268.506V0.5H270.509V0H272.513V0.5H274.517V0H276.521V0.5H278.525V0H280.529V0.5H282.533V0H284.536V0.5H286.54V0H288.544V0.5H290.548V0H292.552V0.5H294.556V0H296.56V0.5H298.563V0H300.567V0.5H302.571V0H304.575V0.5H306.579V0H308.583V0.5H310.586V0H312.59V0.5H314.594V0H316.598V0.5H318.602V0H320.606V0.5H322.609V0H324.613V0.5H326.617V0H328.621V0.5H330.625V0H332.629V0.5H334.633V0H336.636V0.5H338.64V0H340.644V0.5H342.648V0H344.652V0.5H346.656V0H348.659V0.5H350.663V0H352.667V0.5H354.671V0H356.675V0.5H358.679V0H360.683V0.5H362.686V0H364.69V0.5H366.694V0H368.698V0.5H370.702V0H372.706V0.5H374.709V0H376.713V0.5H378.717V0H380.721V0.5H382.725V0H384.729V0.5H386.733V0H388.736V0.5H390.74V0H392.744V0.5H394.748V0H396.752V0.5H398.756V0H400.759V0.5H402.763V0H404.767V0.5H406.771V0H408.775V0.5H410.779V0H412.783V0.5H414.786V0H416.79V0.5H418.794V0H420.798V0.5H422.802V0H424.806V0.5H426.809V0H428.813V0.5H430.817V0H432.821V0.5H434.825V0H436.829V0.5H438.832V0H440.836V0.5H442.84V0H444.844V0.5H446.848V0H448.852V0.5H450.856V0H452.859V0.5H454.863V0H456.867V0.5H458.871V0H460.875V0.5H462.879V0H464.883V0.5H466.886V0H468.89V0.5H470.894V0H472.898V0.5H474.902V0H476.906V0.5H478.909V0H480.913V0.5H482.917V0H484.921V0.5H486.925V0H488.929V0.5H490.932V0H492.936V0.5H494.94V0H496.944V0.5H498.948V0H500.952V0.5H502.956V0H504.959V0.5H506.963V0H508.967V0.5H510.971V0H512.975V0.5H514.979V0H516.982V0.5H518.986V0H520.99V0.5H522.994V0H524.998V0.5H526C526.301 0.5 526.595 0.529517 526.879 0.585664L526.976 0.0951688C527.632 0.22494 528.242 0.483022 528.778 0.842174L528.5 1.25766C528.991 1.58634 529.414 2.00913 529.742 2.50008L530.158 2.22191C530.517 2.75837 530.775 3.36821 530.905 4.02419L530.414 4.12122C530.47 4.40504 530.5 4.69883 530.5 5V5.99709H531V7.99128H530.5V9.98547H531V11.9797H530.5V13.9738H531V15.968H530.5V17.9622H531V19.9564H530.5V21.9506H531V23.9448H530.5V25.939H531V27.9331H530.5V29.9273H531V31.9215H530.5V33.9157H531V35.9099H530.5V37.9041H531V39.8983H530.5V41.8924H531V43.8866H530.5V45.8808H531V47.875H530.5V49.8692H531V51.8634H530.5V53.8576H531V55.8517H530.5V57.8459H531V59.8401H530.5V61.8343H531V63.8285H530.5V65.8227H531V67.8169H530.5V69.8111H531V71.8052H530.5V73.7994H531V75.7936H530.5V77.7878H531V79.782H530.5V81.7762H531V83.7704H530.5V85.7645H531V87.7587H530.5V89.7529H531V91.7471H530.5V93.7413H531V95.7355H530.5V97.7297H531V99.7238H530.5V101.718H531V103.712H530.5V105.706H531V107.701H530.5V109.695H531V111.689H530.5V113.683H531V115.677H530.5V117.672H531V119.666H530.5V121.66H531V123.654H530.5V125.648H531V127.642H530.5V129.637H531V131.631H530.5V133.625H531V135.619H530.5V137.613H531V139.608H530.5V141.602H531V143.596H530.5V145.59H531V147.584H530.5V149.579H531V151.573H530.5V153.567H531V155.561H530.5V157.555H531V159.549H530.5V161.544H531V163.538H530.5V165.532H531V167.526H530.5V169.52H531V171.515H530.5V173.509H531V175.503H530.5V177.497H531V179.491H530.5V181.485H531V183.48H530.5V185.474H531V187.468H530.5V189.462H531V191.456H530.5V193.451H531V195.445H530.5V197.439H531V199.433H530.5V201.427H531V203.422H530.5V205.416H531V207.41H530.5V209.404H531V211.398H530.5V213.392H531V215.387H530.5V217.381H531V219.375H530.5V221.369H531V223.363H530.5V225.358H531V227.352H530.5V229.346H531V231.34H530.5V233.334H531V235.329H530.5V237.323H531V239.317H530.5V241.311H531V243.305H530.5V245.299H531V247.294H530.5V249.288H531V251.282H530.5V253.276H531V255.27H530.5V257.265H531V259.259H530.5V261.253H531V263.247H530.5V265.241H531V267.235H530.5V269.23H531V271.224H530.5V273.218H531V275.212H530.5V277.206H531V279.2H530.5V281.195H531V283.189H530.5V285.183H531V287.177H530.5V289.171H531V291.165H530.5V293.16H531V295.154H530.5V297.148H531V299.142H530.5V301.136H531V303.131H530.5V305.125H531V307.119H530.5V309.113H531V311.107H530.5V313.101H531V315.096H530.5V317.09H531V319.084H530.5V321.078H531V323.072H530.5V325.066H531V327.061H530.5V329.055H531V331.049H530.5V333.043H531V335.037H530.5V337.031H531V339.026H530.5V341.02H531V343.014H530.5V345.008H531V347.002H530.5V348C530.5 348.301 530.47 348.595 530.414 348.879L530.905 348.976C530.775 349.632 530.517 350.242 530.158 350.778L529.742 350.5C529.414 350.991 528.991 351.414 528.5 351.742L528.778 352.158C528.242 352.517 527.632 352.775 526.976 352.905L526.879 352.414C526.595 352.47 526.301 352.5 526 352.5H524.998V353H522.994V352.5H520.99V353H518.987V352.5H516.983V353H514.979V352.5H512.975V353H510.971V352.5H508.967V353H506.963V352.5H504.96V353H502.956V352.5H500.952V353H498.948V352.5H496.944V353H494.94V352.5H492.937V353H490.933V352.5H488.929V353H486.925V352.5H484.921V353H482.917V352.5H480.913V353H478.91V352.5H476.906V353H474.902V352.5H472.898V353H470.894V352.5H468.89V353H466.887V352.5H464.883V353H462.879V352.5H460.875V353H458.871V352.5H456.867V353H454.863V352.5H452.86V353H450.856V352.5H448.852V353H446.848V352.5H444.844V353H442.84V352.5H440.837V353H438.833V352.5H436.829V353H434.825V352.5H432.821V353H430.817V352.5H428.814V353H426.81V352.5H424.806V353H422.802V352.5H420.798V353H418.794V352.5H416.79V353H414.787V352.5H412.783V353H410.779V352.5H408.775V353H406.771V352.5H404.767V353H402.764V352.5H400.76V353H398.756V352.5H396.752V353H394.748V352.5H392.744V353H390.74V352.5H388.737V353H386.733V352.5H384.729V353H382.725V352.5H380.721V353H378.717V352.5H376.714V353H374.71V352.5H372.706V353H370.702V352.5H368.698V353H366.694V352.5H364.69V353H362.687V352.5H360.683V353H358.679V352.5H356.675V353H354.671V352.5H352.667V353H350.664V352.5H348.66V353H346.656V352.5H344.652V353H342.648V352.5H340.644V353H338.64V352.5H336.637V353H334.633V352.5H332.629V353H330.625V352.5H328.621V353H326.617V352.5H324.614V353H322.61V352.5H320.606V353H318.602V352.5H316.598V353H314.594V352.5H312.59V353H310.587V352.5H308.583V353H306.579V352.5H304.575V353H302.571V352.5H300.567V353H298.564V352.5H296.56V353H294.556V352.5H292.552V353H290.548V352.5H288.544V353H286.54V352.5H284.537V353H282.533V352.5H280.529V353H278.525V352.5H276.521V353H274.517V352.5H272.514V353H270.51V352.5H268.506V353H266.502V352.5H264.498V353H262.494V352.5H260.491V353H258.487V352.5H256.483V353H254.479V352.5H252.475V353H250.471V352.5H248.467V353H246.464V352.5H244.46V353H242.456V352.5H240.452V353H238.448V352.5H236.444V353H234.44V352.5H232.437V353H230.433V352.5H228.429V353H226.425V352.5H224.421V353H222.417V352.5H220.414V353H218.41V352.5H216.406V353H214.402V352.5H212.398V353H210.394V352.5H208.391V353H206.387V352.5H204.383V353H202.379V352.5H200.375V353H198.371V352.5H196.367V353H194.364V352.5H192.36V353H190.356V352.5H188.352V353H186.348V352.5H184.344V353H182.341V352.5H180.337V353H178.333V352.5H176.329V353H174.325V352.5H172.321V353H170.317V352.5H168.314V353H166.31V352.5H164.306V353H162.302V352.5H160.298V353H158.294V352.5H156.291V353H154.287V352.5H152.283V353H150.279V352.5H148.275V353H146.271V352.5H144.267V353H142.264V352.5H140.26V353H138.256V352.5H136.252V353H134.248V352.5H132.244V353H130.241V352.5H128.237V353H126.233V352.5H124.229V353H122.225V352.5H120.221V353H118.217V352.5H116.214V353H114.21V352.5H112.206V353H110.202V352.5H108.198V353H106.194V352.5H104.191V353H102.187V352.5H100.183V353H98.179V352.5H96.1752V353H94.1713V352.5H92.1675V353H90.1636V352.5H88.1598V353H86.156V352.5H84.1521V353H82.1483V352.5H80.1444V353H78.1406V352.5H76.1367V353H74.1329V352.5H72.1291V353H70.1252V352.5H68.1213V353H66.1175V352.5H64.1137V353H62.1098V352.5H60.106V353H58.1021V352.5H56.0983V353H54.0944V352.5H52.0906V353H50.0868V352.5H48.0829V353H46.079V352.5H44.0752V353H42.0714V352.5H40.0675V353H38.0637V352.5H36.0598V353H34.056V352.5H32.0521V353H30.0483V352.5H28.0445V353H26.0406V352.5H24.0367V353H22.0329V352.5H20.0291V353H18.0252V352.5H16.0214V353H14.0175V352.5H12.0137V353H10.0098V352.5H8.00598V353H6.00216V352.5H5.00001Z" stroke="#C2D1D9" stroke-dasharray="2 2"/>
</svg>
