<svg width="46" height="48" viewBox="0 0 46 48" fill="none" xmlns="http://www.w3.org/2000/svg">
<path fill-rule="evenodd" clip-rule="evenodd" d="M20.0425 12.7597C19.6484 12.3462 18.9886 12.3462 18.5946 12.7597L17.288 14.1309C16.9202 14.5169 16.9199 15.1235 17.2872 15.5098L25.36 24L17.2872 32.4902C16.9199 32.8765 16.9202 33.4831 17.288 33.8691L18.5946 35.2403C18.9886 35.6538 19.6484 35.6538 20.0425 35.2403L30.7534 24L20.0425 12.7597Z" fill="#FF4040"/>
<mask id="mask0_179_650" style="mask-type:luminance" maskUnits="userSpaceOnUse" x="17" y="12" width="14" height="24">
<path fill-rule="evenodd" clip-rule="evenodd" d="M20.0425 12.7597C19.6484 12.3462 18.9886 12.3462 18.5946 12.7597L17.288 14.1309C16.9202 14.5169 16.9199 15.1235 17.2872 15.5098L25.36 24L17.2872 32.4902C16.9199 32.8765 16.9202 33.4831 17.288 33.8691L18.5946 35.2403C18.9886 35.6538 19.6484 35.6538 20.0425 35.2403L30.7534 24L20.0425 12.7597Z" fill="white"/>
</mask>
<g mask="url(#mask0_179_650)">
<rect width="45.7395" height="48" transform="matrix(-1 0 0 1 46 0)" fill="#FF4040"/>
</g>
</svg>
