<svg width="214" height="16" viewBox="0 0 214 16" fill="none" xmlns="http://www.w3.org/2000/svg">
<path d="M10.3217 9.06543C10.2 10.3548 9.72408 11.362 8.894 12.0869C8.06392 12.8063 6.95992 13.166 5.58199 13.166C4.61909 13.166 3.76965 12.9391 3.03365 12.4854C2.30318 12.026 1.73872 11.3758 1.34029 10.5347C0.941849 9.69352 0.734329 8.7168 0.717728 7.60449V6.47559C0.717728 5.33561 0.919713 4.33122 1.32368 3.4624C1.72766 2.59359 2.30594 1.92399 3.05855 1.45361C3.81669 0.983236 4.69103 0.748047 5.68159 0.748047C7.01525 0.748047 8.08882 1.11051 8.9023 1.83545C9.71577 2.56038 10.1889 3.58415 10.3217 4.90674H8.22993C8.13033 4.03792 7.87577 3.4126 7.46626 3.03076C7.06229 2.64339 6.4674 2.44971 5.68159 2.44971C4.76851 2.44971 4.06571 2.78451 3.5732 3.4541C3.08622 4.11816 2.83719 5.09489 2.82613 6.38428V7.45508C2.82613 8.76107 3.05855 9.75716 3.52339 10.4434C3.99377 11.1296 4.67997 11.4727 5.58199 11.4727C6.40653 11.4727 7.02632 11.2873 7.44136 10.9165C7.8564 10.5457 8.11926 9.92871 8.22993 9.06543H10.3217ZM23.6608 15.9717H21.6686V13H13.7081V15.9717H11.6827L11.6163 11.3232H12.5875C13.069 10.8584 13.4536 10.1833 13.7413 9.29785C14.0291 8.4069 14.2145 7.39974 14.2975 6.27637L14.6129 0.914062H22.233V11.3232H23.7687L23.6608 15.9717ZM14.9615 11.3232H20.1412V2.60742H16.6134L16.4142 6.01074C16.2648 8.28516 15.7805 10.056 14.9615 11.3232ZM32.7498 7.60449H27.7859V11.3232H33.5882V13H25.6858V0.914062H33.5301V2.60742H27.7859V5.94434H32.7498V7.60449ZM45.1425 0.914062V13H43.0507V2.60742H39.3486L39.1327 7.28076C39.0497 8.7417 38.8699 9.87614 38.5932 10.6841C38.322 11.4865 37.9264 12.0731 37.4062 12.4438C36.886 12.8146 36.1887 13 35.3144 13H34.7831V11.3232L35.1152 11.2983C35.5966 11.2541 35.9674 11.0853 36.2275 10.792C36.4931 10.4987 36.6923 10.056 36.8251 9.46387C36.9635 8.86621 37.0603 7.9891 37.1157 6.83252L37.3481 0.914062H45.1425ZM54.9288 10.186H50.2472L49.2677 13H47.0846L51.65 0.914062H53.5343L58.108 13H55.9166L54.9288 10.186ZM50.8365 8.49268H54.3394L52.588 3.479L50.8365 8.49268ZM69.4216 13H67.3298V7.62939H61.926V13H59.8259V0.914062H61.926V5.94434H67.3298V0.914062H69.4216V13ZM81.8974 7.27246C81.8974 8.45671 81.6926 9.49707 81.2831 10.3936C80.8736 11.2845 80.287 11.9707 79.5234 12.4521C78.7652 12.9281 77.8909 13.166 76.9003 13.166C75.9208 13.166 75.0465 12.9281 74.2773 12.4521C73.5136 11.9707 72.9215 11.2873 72.5009 10.4019C72.0859 9.51644 71.8756 8.49544 71.87 7.33887V6.6582C71.87 5.47949 72.0776 4.43913 72.4926 3.53711C72.9132 2.63509 73.5025 1.94613 74.2607 1.47021C75.0243 0.98877 75.8987 0.748047 76.8837 0.748047C77.8687 0.748047 78.7403 0.986003 79.4985 1.46191C80.2621 1.93229 80.8515 2.61296 81.2665 3.50391C81.6816 4.38932 81.8918 5.42139 81.8974 6.6001V7.27246ZM79.7973 6.6416C79.7973 5.30241 79.5427 4.27588 79.0336 3.56201C78.53 2.84814 77.8134 2.49121 76.8837 2.49121C75.9762 2.49121 75.2651 2.84814 74.7504 3.56201C74.2413 4.27035 73.9812 5.27474 73.9701 6.5752V7.27246C73.9701 8.60059 74.2275 9.62712 74.7421 10.3521C75.2623 11.077 75.9817 11.4395 76.9003 11.4395C77.83 11.4395 78.5439 11.0853 79.0419 10.377C79.5455 9.66862 79.7973 8.63379 79.7973 7.27246V6.6416ZM88.9026 13V0.914062H93.0447C94.4115 0.914062 95.4519 1.18799 96.1658 1.73584C96.8796 2.28369 97.2366 3.09993 97.2366 4.18457C97.2366 4.73796 97.0871 5.236 96.7883 5.67871C96.4895 6.12142 96.0523 6.46452 95.4768 6.70801C96.1298 6.88509 96.6334 7.21989 96.9875 7.7124C97.3472 8.19938 97.5271 8.78597 97.5271 9.47217C97.5271 10.6066 97.1618 11.4782 96.4314 12.0869C95.7064 12.6956 94.6661 13 93.3103 13H88.9026ZM91.0027 7.54639V11.3232H93.3352C93.9937 11.3232 94.5084 11.16 94.8791 10.8335C95.2499 10.507 95.4353 10.0532 95.4353 9.47217C95.4353 8.21598 94.7934 7.57406 93.5095 7.54639H91.0027ZM91.0027 6.00244H93.0613C93.7143 6.00244 94.2234 5.85579 94.5886 5.5625C94.9594 5.26367 95.1448 4.8431 95.1448 4.30078C95.1448 3.70312 94.9732 3.27148 94.6301 3.00586C94.2925 2.74023 93.7641 2.60742 93.0447 2.60742H91.0027V6.00244ZM108.118 7.82031H106.69V13H104.599V0.914062H106.69V5.99414H107.844L111.397 0.914062H113.97L109.82 6.69971L114.336 13H111.812L108.118 7.82031ZM122.603 10.186H117.921L116.942 13H114.759L119.324 0.914062H121.208L125.782 13H123.591L122.603 10.186ZM118.51 8.49268H122.013L120.262 3.479L118.51 8.49268ZM133.543 4.20947C133.543 3.66715 133.338 3.23551 132.929 2.91455C132.519 2.59359 131.963 2.43311 131.26 2.43311C130.657 2.43311 130.153 2.59359 129.749 2.91455C129.345 3.22998 129.143 3.63949 129.143 4.14307H127.052C127.052 3.48454 127.234 2.89795 127.599 2.3833C127.965 1.86865 128.471 1.47021 129.119 1.18799C129.766 0.900228 130.48 0.756348 131.26 0.756348C132.644 0.756348 133.717 1.05794 134.481 1.66113C135.25 2.26432 135.635 3.10824 135.635 4.19287C135.635 4.74072 135.469 5.2443 135.137 5.70361C134.805 6.16292 134.34 6.52539 133.742 6.79102C134.417 7.02344 134.932 7.3776 135.286 7.85352C135.646 8.32389 135.826 8.91048 135.826 9.61328C135.826 10.6979 135.411 11.5612 134.58 12.2031C133.75 12.8395 132.644 13.1577 131.26 13.1577C130.408 13.1577 129.636 13.0055 128.944 12.7012C128.258 12.3968 127.741 11.9818 127.392 11.4561C127.049 10.9303 126.877 10.3271 126.877 9.64648H128.969C128.969 10.1667 129.185 10.6066 129.617 10.9663C130.048 11.3205 130.596 11.4976 131.26 11.4976C132.002 11.4976 132.597 11.3232 133.045 10.9746C133.499 10.626 133.725 10.1722 133.725 9.61328C133.725 8.93262 133.526 8.4401 133.128 8.13574C132.735 7.82585 132.157 7.6709 131.393 7.6709H129.974V6.01074H131.318C132.801 6.01074 133.543 5.41032 133.543 4.20947ZM144.881 10.186H140.2L139.22 13H137.037L141.603 0.914062H143.487L148.061 13H145.869L144.881 10.186ZM140.789 8.49268H144.292L142.541 3.479L140.789 8.49268ZM153.937 5.28027L156.477 0.914062H158.901L155.249 6.90723L158.984 13H156.535L153.937 8.56738L151.331 13H148.89L152.634 6.90723L148.973 0.914062H151.397L153.937 5.28027ZM169.883 9.06543C169.761 10.3548 169.285 11.362 168.455 12.0869C167.625 12.8063 166.521 13.166 165.143 13.166C164.18 13.166 163.331 12.9391 162.595 12.4854C161.864 12.026 161.3 11.3758 160.901 10.5347C160.503 9.69352 160.295 8.7168 160.279 7.60449V6.47559C160.279 5.33561 160.481 4.33122 160.885 3.4624C161.289 2.59359 161.867 1.92399 162.619 1.45361C163.378 0.983236 164.252 0.748047 165.243 0.748047C166.576 0.748047 167.65 1.11051 168.463 1.83545C169.277 2.56038 169.75 3.58415 169.883 4.90674H167.791C167.691 4.03792 167.437 3.4126 167.027 3.03076C166.623 2.64339 166.028 2.44971 165.243 2.44971C164.329 2.44971 163.627 2.78451 163.134 3.4541C162.647 4.11816 162.398 5.09489 162.387 6.38428V7.45508C162.387 8.76107 162.619 9.75716 163.084 10.4434C163.555 11.1296 164.241 11.4727 165.143 11.4727C165.967 11.4727 166.587 11.2873 167.002 10.9165C167.417 10.5457 167.68 9.92871 167.791 9.06543H169.883ZM180.59 2.60742H176.822V13H174.738V2.60742H171.003V0.914062H180.59V2.60742ZM188.293 10.186H183.611L182.632 13H180.449L185.014 0.914062H186.899L191.472 13H189.281L188.293 10.186ZM184.201 8.49268H187.704L185.952 3.479L184.201 8.49268ZM202.786 13H200.694V7.62939H195.29V13H193.19V0.914062H195.29V5.94434H200.694V0.914062H202.786V13ZM212.68 7.60449H207.716V11.3232H213.519V13H205.616V0.914062H213.46V2.60742H207.716V5.94434H212.68V7.60449Z" fill="#FF0000"/>
</svg>
