<svg width="191" height="17" viewBox="0 0 191 17" fill="none" xmlns="http://www.w3.org/2000/svg">
<path d="M0.404 1.148H10.412V14H8.702V2.588H2.114V14H0.404V1.148ZM16.9805 14.198C16.2365 14.198 15.5825 14.078 15.0185 13.838C14.4665 13.586 13.9985 13.244 13.6145 12.812C13.2305 12.368 12.9425 11.852 12.7505 11.264C12.5585 10.676 12.4625 10.04 12.4625 9.356C12.4625 8.672 12.5585 8.036 12.7505 7.448C12.9425 6.848 13.2305 6.332 13.6145 5.9C13.9985 5.456 14.4665 5.108 15.0185 4.856C15.5825 4.604 16.2365 4.478 16.9805 4.478C17.7125 4.478 18.3605 4.604 18.9245 4.856C19.4885 5.108 19.9625 5.456 20.3465 5.9C20.7305 6.332 21.0185 6.848 21.2105 7.448C21.4025 8.036 21.4985 8.672 21.4985 9.356C21.4985 10.04 21.4025 10.676 21.2105 11.264C21.0185 11.852 20.7305 12.368 20.3465 12.812C19.9625 13.244 19.4885 13.586 18.9245 13.838C18.3605 14.078 17.7125 14.198 16.9805 14.198ZM16.9805 12.866C17.3765 12.866 17.7485 12.788 18.0965 12.632C18.4565 12.476 18.7685 12.254 19.0325 11.966C19.2965 11.666 19.5005 11.3 19.6445 10.868C19.8005 10.424 19.8785 9.92 19.8785 9.356C19.8785 8.792 19.8005 8.294 19.6445 7.862C19.5005 7.418 19.2965 7.046 19.0325 6.746C18.7685 6.446 18.4565 6.218 18.0965 6.062C17.7485 5.906 17.3765 5.828 16.9805 5.828C16.5845 5.828 16.2065 5.906 15.8465 6.062C15.4985 6.218 15.1925 6.446 14.9285 6.746C14.6645 7.046 14.4545 7.418 14.2985 7.862C14.1545 8.294 14.0825 8.792 14.0825 9.356C14.0825 9.92 14.1545 10.424 14.2985 10.868C14.4545 11.3 14.6645 11.666 14.9285 11.966C15.1925 12.254 15.4985 12.476 15.8465 12.632C16.2065 12.788 16.5845 12.866 16.9805 12.866ZM22.2044 12.65H23.3024C23.4344 12.398 23.5664 12.056 23.6984 11.624C23.8424 11.18 23.9684 10.694 24.0764 10.166C24.1964 9.626 24.2924 9.056 24.3644 8.456C24.4364 7.856 24.4724 7.268 24.4724 6.692V4.694H31.2044V12.65H32.4644V16.826H31.0064V14H23.6624V16.826H22.2044V12.65ZM29.6744 12.65V6.044H25.9664V6.836C25.9664 7.424 25.9304 8.012 25.8584 8.6C25.7984 9.176 25.7144 9.722 25.6064 10.238C25.4984 10.754 25.3784 11.222 25.2464 11.642C25.1264 12.062 25.0064 12.398 24.8864 12.65H29.6744ZM33.902 4.694H35.432V8.402H40.148V4.694H41.678V14H40.148V9.716H35.432V14H33.902V4.694ZM43.9743 4.694H45.5043V12.29L49.8963 4.694H51.8583V14H50.3283V6.404L45.9363 14H43.9743V4.694ZM54.1696 4.694H56.3656L59.1916 12.236H59.2276L62.0536 4.694H64.2496V14H62.7196V6.62L59.9116 14H58.5076L55.6996 6.62V14H54.1696V4.694ZM69.1362 14.198C68.7162 14.198 68.3202 14.15 67.9482 14.054C67.5762 13.97 67.2462 13.826 66.9582 13.622C66.6822 13.406 66.4602 13.136 66.2922 12.812C66.1362 12.476 66.0582 12.074 66.0582 11.606C66.0582 11.078 66.1482 10.646 66.3282 10.31C66.5082 9.974 66.7422 9.704 67.0302 9.5C67.3302 9.284 67.6662 9.122 68.0382 9.014C68.4222 8.906 68.8122 8.816 69.2082 8.744C69.6282 8.66 70.0242 8.6 70.3962 8.564C70.7802 8.516 71.1162 8.456 71.4042 8.384C71.6922 8.3 71.9202 8.186 72.0882 8.042C72.2562 7.886 72.3402 7.664 72.3402 7.376C72.3402 7.04 72.2742 6.77 72.1422 6.566C72.0222 6.362 71.8602 6.206 71.6562 6.098C71.4642 5.99 71.2422 5.918 70.9902 5.882C70.7502 5.846 70.5102 5.828 70.2702 5.828C69.6222 5.828 69.0822 5.954 68.6502 6.206C68.2182 6.446 67.9842 6.908 67.9482 7.592H66.4182C66.4422 7.016 66.5622 6.53 66.7782 6.134C66.9942 5.738 67.2822 5.42 67.6422 5.18C68.0022 4.928 68.4102 4.748 68.8662 4.64C69.3342 4.532 69.8322 4.478 70.3602 4.478C70.7802 4.478 71.1942 4.508 71.6022 4.568C72.0222 4.628 72.4002 4.754 72.7362 4.946C73.0722 5.126 73.3422 5.384 73.5462 5.72C73.7502 6.056 73.8522 6.494 73.8522 7.034V11.822C73.8522 12.182 73.8702 12.446 73.9062 12.614C73.9542 12.782 74.0982 12.866 74.3382 12.866C74.4462 12.866 74.6022 12.836 74.8062 12.776V13.964C74.5422 14.12 74.1762 14.198 73.7082 14.198C73.3122 14.198 72.9942 14.09 72.7542 13.874C72.5262 13.646 72.4122 13.28 72.4122 12.776C71.9922 13.28 71.5002 13.646 70.9362 13.874C70.3842 14.09 69.7842 14.198 69.1362 14.198ZM69.4782 12.866C69.9822 12.866 70.4142 12.8 70.7742 12.668C71.1342 12.524 71.4282 12.35 71.6562 12.146C71.8842 11.93 72.0522 11.702 72.1602 11.462C72.2682 11.21 72.3222 10.976 72.3222 10.76V9.194C72.1302 9.35 71.8782 9.458 71.5662 9.518C71.2542 9.578 70.9242 9.632 70.5762 9.68C70.2402 9.728 69.8982 9.776 69.5502 9.824C69.2022 9.872 68.8902 9.956 68.6142 10.076C68.3382 10.196 68.1102 10.37 67.9302 10.598C67.7622 10.814 67.6782 11.114 67.6782 11.498C67.6782 11.75 67.7262 11.966 67.8222 12.146C67.9302 12.314 68.0622 12.452 68.2182 12.56C68.3862 12.668 68.5782 12.746 68.7942 12.794C69.0102 12.842 69.2382 12.866 69.4782 12.866ZM76.2301 4.694H77.7601V12.29L82.1521 4.694H84.1141V14H82.5841V6.404L78.1921 14H76.2301V4.694ZM80.1721 3.326C79.4641 3.326 78.8761 3.11 78.4081 2.678C77.9521 2.234 77.6761 1.652 77.5801 0.932H78.4981C78.6301 1.364 78.8341 1.682 79.1101 1.886C79.3981 2.078 79.7461 2.174 80.1541 2.174C80.5741 2.174 80.9161 2.078 81.1801 1.886C81.4561 1.682 81.6661 1.364 81.8101 0.932H82.7281C82.6081 1.652 82.3321 2.234 81.9001 2.678C81.4681 3.11 80.8921 3.326 80.1721 3.326ZM88.6754 6.044H85.3454V4.694H93.5354V6.044H90.2054V14H88.6754V6.044ZM98.7175 14.198C97.9735 14.198 97.3195 14.078 96.7555 13.838C96.2035 13.598 95.7415 13.262 95.3695 12.83C94.9975 12.398 94.7155 11.882 94.5235 11.282C94.3435 10.682 94.2535 10.028 94.2535 9.32C94.2535 8.624 94.3615 7.982 94.5775 7.394C94.7935 6.794 95.0935 6.278 95.4775 5.846C95.8735 5.414 96.3355 5.078 96.8635 4.838C97.4035 4.598 97.9915 4.478 98.6275 4.478C99.4555 4.478 100.139 4.652 100.679 5C101.231 5.336 101.669 5.768 101.993 6.296C102.329 6.824 102.557 7.4 102.677 8.024C102.809 8.648 102.863 9.242 102.839 9.806H95.8735C95.8615 10.214 95.9095 10.604 96.0175 10.976C96.1255 11.336 96.2995 11.66 96.5395 11.948C96.7795 12.224 97.0855 12.446 97.4575 12.614C97.8295 12.782 98.2675 12.866 98.7715 12.866C99.4195 12.866 99.9475 12.716 100.355 12.416C100.775 12.116 101.051 11.66 101.183 11.048H102.695C102.491 12.104 102.041 12.896 101.345 13.424C100.649 13.94 99.7735 14.198 98.7175 14.198ZM101.219 8.456C101.195 8.096 101.111 7.754 100.967 7.43C100.835 7.106 100.649 6.83 100.409 6.602C100.181 6.362 99.9055 6.176 99.5815 6.044C99.2695 5.9 98.9215 5.828 98.5375 5.828C98.1415 5.828 97.7815 5.9 97.4575 6.044C97.1455 6.176 96.8755 6.362 96.6475 6.602C96.4195 6.842 96.2395 7.124 96.1075 7.448C95.9755 7.76 95.8975 8.096 95.8735 8.456H101.219ZM108.277 14.198C107.569 14.198 106.939 14.084 106.387 13.856C105.847 13.628 105.391 13.304 105.019 12.884C104.659 12.464 104.383 11.966 104.191 11.39C104.011 10.814 103.921 10.172 103.921 9.464C103.921 8.768 104.011 8.12 104.191 7.52C104.371 6.908 104.641 6.38 105.001 5.936C105.373 5.48 105.829 5.126 106.369 4.874C106.921 4.61 107.569 4.478 108.313 4.478C108.841 4.478 109.333 4.544 109.789 4.676C110.257 4.796 110.665 4.988 111.013 5.252C111.373 5.516 111.667 5.852 111.895 6.26C112.123 6.656 112.267 7.13 112.327 7.682H110.743C110.623 7.094 110.371 6.638 109.987 6.314C109.603 5.99 109.087 5.828 108.439 5.828C107.887 5.828 107.425 5.93 107.053 6.134C106.681 6.338 106.381 6.608 106.153 6.944C105.937 7.28 105.781 7.67 105.685 8.114C105.589 8.546 105.541 8.996 105.541 9.464C105.541 9.896 105.589 10.316 105.685 10.724C105.793 11.132 105.955 11.498 106.171 11.822C106.387 12.134 106.663 12.386 106.999 12.578C107.347 12.77 107.767 12.866 108.259 12.866C109.015 12.866 109.603 12.668 110.023 12.272C110.455 11.876 110.719 11.318 110.815 10.598H112.381C112.213 11.762 111.787 12.656 111.103 13.28C110.419 13.892 109.477 14.198 108.277 14.198ZM114.183 4.694H115.713V8.258H119.025C119.937 8.258 120.669 8.51 121.221 9.014C121.773 9.506 122.049 10.202 122.049 11.102C122.049 11.978 121.785 12.68 121.257 13.208C120.729 13.736 120.009 14 119.097 14H114.183V4.694ZM118.539 12.65C119.823 12.65 120.465 12.134 120.465 11.102C120.465 10.082 119.823 9.572 118.539 9.572H115.713V12.65H118.539ZM132.57 14.198C131.862 14.198 131.232 14.084 130.68 13.856C130.14 13.628 129.684 13.304 129.312 12.884C128.952 12.464 128.676 11.966 128.484 11.39C128.304 10.814 128.214 10.172 128.214 9.464C128.214 8.768 128.304 8.12 128.484 7.52C128.664 6.908 128.934 6.38 129.294 5.936C129.666 5.48 130.122 5.126 130.662 4.874C131.214 4.61 131.862 4.478 132.606 4.478C133.134 4.478 133.626 4.544 134.082 4.676C134.55 4.796 134.958 4.988 135.306 5.252C135.666 5.516 135.96 5.852 136.188 6.26C136.416 6.656 136.56 7.13 136.62 7.682H135.036C134.916 7.094 134.664 6.638 134.28 6.314C133.896 5.99 133.38 5.828 132.732 5.828C132.18 5.828 131.718 5.93 131.346 6.134C130.974 6.338 130.674 6.608 130.446 6.944C130.23 7.28 130.074 7.67 129.978 8.114C129.882 8.546 129.834 8.996 129.834 9.464C129.834 9.896 129.882 10.316 129.978 10.724C130.086 11.132 130.248 11.498 130.464 11.822C130.68 12.134 130.956 12.386 131.292 12.578C131.64 12.77 132.06 12.866 132.552 12.866C133.308 12.866 133.896 12.668 134.316 12.272C134.748 11.876 135.012 11.318 135.108 10.598H136.674C136.506 11.762 136.08 12.656 135.396 13.28C134.712 13.892 133.77 14.198 132.57 14.198ZM143.648 1.148H145.358V6.674H152.126V1.148H153.836V14H152.126V8.114H145.358V14H143.648V1.148ZM158.96 14.198C158.54 14.198 158.144 14.15 157.772 14.054C157.4 13.97 157.07 13.826 156.782 13.622C156.506 13.406 156.284 13.136 156.116 12.812C155.96 12.476 155.882 12.074 155.882 11.606C155.882 11.078 155.972 10.646 156.152 10.31C156.332 9.974 156.566 9.704 156.854 9.5C157.154 9.284 157.49 9.122 157.862 9.014C158.246 8.906 158.636 8.816 159.032 8.744C159.452 8.66 159.848 8.6 160.22 8.564C160.604 8.516 160.94 8.456 161.228 8.384C161.516 8.3 161.744 8.186 161.912 8.042C162.08 7.886 162.164 7.664 162.164 7.376C162.164 7.04 162.098 6.77 161.966 6.566C161.846 6.362 161.684 6.206 161.48 6.098C161.288 5.99 161.066 5.918 160.814 5.882C160.574 5.846 160.334 5.828 160.094 5.828C159.446 5.828 158.906 5.954 158.474 6.206C158.042 6.446 157.808 6.908 157.772 7.592H156.242C156.266 7.016 156.386 6.53 156.602 6.134C156.818 5.738 157.106 5.42 157.466 5.18C157.826 4.928 158.234 4.748 158.69 4.64C159.158 4.532 159.656 4.478 160.184 4.478C160.604 4.478 161.018 4.508 161.426 4.568C161.846 4.628 162.224 4.754 162.56 4.946C162.896 5.126 163.166 5.384 163.37 5.72C163.574 6.056 163.676 6.494 163.676 7.034V11.822C163.676 12.182 163.694 12.446 163.73 12.614C163.778 12.782 163.922 12.866 164.162 12.866C164.27 12.866 164.426 12.836 164.63 12.776V13.964C164.366 14.12 164 14.198 163.532 14.198C163.136 14.198 162.818 14.09 162.578 13.874C162.35 13.646 162.236 13.28 162.236 12.776C161.816 13.28 161.324 13.646 160.76 13.874C160.208 14.09 159.608 14.198 158.96 14.198ZM159.302 12.866C159.806 12.866 160.238 12.8 160.598 12.668C160.958 12.524 161.252 12.35 161.48 12.146C161.708 11.93 161.876 11.702 161.984 11.462C162.092 11.21 162.146 10.976 162.146 10.76V9.194C161.954 9.35 161.702 9.458 161.39 9.518C161.078 9.578 160.748 9.632 160.4 9.68C160.064 9.728 159.722 9.776 159.374 9.824C159.026 9.872 158.714 9.956 158.438 10.076C158.162 10.196 157.934 10.37 157.754 10.598C157.586 10.814 157.502 11.114 157.502 11.498C157.502 11.75 157.55 11.966 157.646 12.146C157.754 12.314 157.886 12.452 158.042 12.56C158.21 12.668 158.402 12.746 158.618 12.794C158.834 12.842 159.062 12.866 159.302 12.866ZM166.054 4.694H168.25L171.076 12.236H171.112L173.938 4.694H176.134V14H174.604V6.62L171.796 14H170.392L167.584 6.62V14H166.054V4.694ZM178.447 4.694H179.977V12.29L184.369 4.694H186.331V14H184.801V6.404L180.409 14H178.447V4.694ZM188.822 12.002V14H190.82V12.002H188.822ZM190.676 5.108V1.148H188.966V5.108L189.416 10.706H190.226L190.676 5.108Z" fill="#081543"/>
</svg>
