<svg width="224" height="34" viewBox="0 0 224 34" fill="none" xmlns="http://www.w3.org/2000/svg">
<rect width="224" height="34" fill="#E5E5E5"/>
<g id="&#208;&#190; &#208;&#189;&#208;&#176;&#209;&#129;" clip-path="url(#clip0_0_1)">
<rect width="1360" height="2972" transform="translate(-154 -24)" fill="white"/>
<g id="Group 372">
<path id="Vector" d="M22.8414 2.65543V2.58497C22.6159 1.1474 22.2353 0.42392 21.7045 0.42392H1.26849C0.737628 0.42392 0.361794 1.1474 0.140991 2.58497V2.65543H22.8414Z" fill="#FF0000"/>
<path id="Vector_2" d="M0 4.69905C0 5.07801 0.0140938 5.45385 0.0422813 5.82655H22.9306C22.9588 5.45385 22.9729 5.07801 22.9729 4.69905C22.9836 4.25187 22.9632 3.80448 22.9118 3.36014H0.061073C0.0234896 3.80174 0 4.22925 0 4.69905Z" fill="#FF0000"/>
<path id="Vector_3" d="M0.112704 6.53125C0.1078 6.62609 0.117304 6.72113 0.140891 6.81313C0.360128 8.26009 0.735962 8.98044 1.26839 8.97417H6.9059V32.5578C6.9059 33.0275 7.72334 33.3 9.34882 33.4269V8.88021H10.0535V33.4692C10.5233 33.4692 10.9931 33.4973 11.5568 33.4973C12.1206 33.4973 12.6421 33.4973 13.1072 33.4645V8.88021H13.8119V33.4222C15.4045 33.2953 16.2078 33.0088 16.2078 32.5578V8.97417H21.7044C22.2337 8.97417 22.6095 8.25382 22.8319 6.81313C22.827 6.71828 22.8365 6.62324 22.8601 6.53125H0.112704Z" fill="#FF0000"/>
<path id="Vector_4" d="M34.0411 0.499084H33.6794L25.2936 33.2765C25.7305 33.2765 26.2332 33.3094 26.7593 33.3094H27.5345L35.0512 4.84936L34.0411 0.499084Z" fill="#FF0000"/>
<path id="Vector_5" d="M40.2566 0.503802C39.5425 0.470917 38.7062 0.470917 37.7526 0.470917L45.678 33.3987H46.0679C46.5659 33.3987 47.1672 33.3987 47.8719 33.3329L40.2566 0.503802Z" fill="#FF0000"/>
<path id="Vector_6" d="M37.062 0.470917H34.713L35.7419 4.8165H35.77V4.87287L42.3471 32.8255C43.1696 33.1723 44.0526 33.3527 44.9451 33.3564L37.062 0.470917Z" fill="#FF0000"/>
<path id="Vector_7" d="M43.531 0.84674C43.531 0.68701 42.6619 0.578958 40.9377 0.522583L48.5531 33.2906L49.4927 33.2154C50.9302 33.0886 51.6537 32.9195 51.6537 32.6987L43.531 0.84674Z" fill="#FF0000"/>
<path id="Vector_8" d="M35.4035 6.28693L28.1875 33.2577C30.0667 33.1105 31.0877 32.6407 31.2505 31.8483L32.6129 26.0229L36.3431 10.3365L35.4035 6.28693Z" fill="#FF0000"/>
<path id="Vector_9" d="M32.9418 0.531982C31.4244 0.593055 30.6586 0.69641 30.6586 0.846743L22.3433 32.6517C22.3433 32.7457 22.7003 32.8866 23.4238 33.0745C23.8054 33.1514 24.1913 33.2047 24.5795 33.2342L32.9418 0.531982Z" fill="#FF0000"/>
<path id="Vector_10" d="M34.5532 21.5458L34.7646 20.2397H38.6357L38.833 21.5458H34.5532Z" fill="#FF0000"/>
<path id="Vector_11" d="M34.0835 23.7209L34.2949 22.4149H39.0962L39.2935 23.7209H34.0835Z" fill="#FF0000"/>
<path id="Vector_12" d="M59.9926 21.8042C59.9549 22.597 60.1026 23.3877 60.4239 24.1135C60.7452 24.8393 61.2313 25.4802 61.8435 25.9854C63.2574 27.0637 65.0046 27.6123 66.7811 27.5357C68.8106 27.5357 70.4126 27.033 71.5401 26.037C72.0926 25.5609 72.531 24.9666 72.8229 24.2982C73.1149 23.6297 73.2528 22.9043 73.2266 22.1753V0.470917C70.8542 0.560177 69.6609 0.860845 69.6609 1.4105V22.5981C69.672 22.9203 69.5888 23.2388 69.4213 23.5142C69.257 23.7912 69.0131 24.0122 68.7213 24.1485C68.1072 24.5007 67.409 24.6793 66.7012 24.6652C65.9444 24.6656 65.2003 24.4715 64.5402 24.1015C64.2503 23.9699 64.0037 23.7588 63.8291 23.4927C63.6545 23.2266 63.5589 22.9164 63.5536 22.5981V1.4105C63.5536 0.89373 62.3666 0.589931 59.9926 0.499104V21.8042Z" fill="#FF0000"/>
<path id="Vector_13" d="M56.7698 22.2317C56.7258 23.4129 56.9522 24.5886 57.4318 25.669C57.9113 26.7494 58.6313 27.706 59.5368 28.4658C61.416 29.9926 63.8777 30.7678 66.8609 30.7678C69.8441 30.7678 72.2447 30.0208 73.9078 28.541C74.7259 27.8237 75.3757 26.9347 75.8109 25.9376C76.2462 24.9404 76.4561 23.8595 76.4259 22.7719V0.470874C75.9138 0.470874 75.3454 0.437988 74.7158 0.437988H73.9125V22.1753C73.9348 23.0037 73.7741 23.8268 73.442 24.586C73.1099 25.3452 72.6145 26.0219 71.991 26.5679C70.7226 27.6766 68.9656 28.2403 66.7623 28.2403C64.8212 28.3195 62.9139 27.7143 61.3737 26.5303C60.687 25.9541 60.1405 25.2291 59.7758 24.4102C59.4111 23.5913 59.2378 22.7 59.2691 21.8042V0.470874H58.414C57.808 0.470874 57.2537 0.470874 56.751 0.503759L56.7698 22.2317Z" fill="#FF0000"/>
<path id="Vector_14" d="M77.1493 0.494385V22.7719C77.18 23.9596 76.9493 25.1395 76.4736 26.2281C75.9978 27.3168 75.2887 28.2876 74.3963 29.0719C72.5782 30.6645 70.0413 31.4725 66.8796 31.4725C63.7179 31.4725 61.1153 30.6457 59.1046 29.0061C57.0939 27.3665 56.0838 25.0504 56.0838 22.2317V0.541364C54.2845 0.66351 53.3778 0.954782 53.3778 1.41048V22.2223C53.3778 25.7645 54.6306 28.5833 57.1361 30.6786C59.6417 32.7738 62.9146 33.8074 66.9548 33.7792C70.995 33.7792 74.1583 32.777 76.4446 30.7725C77.5584 29.7982 78.4426 28.5895 79.0339 27.233C79.6252 25.8766 79.909 24.4061 79.8647 22.927V1.3635C79.8647 0.907802 78.9533 0.621229 77.1493 0.494385Z" fill="#FF0000"/>
<path id="Vector_15" d="M159.231 16.2042L158.898 16.2559C157.991 16.3828 157.535 16.6646 157.535 17.1016L157.442 23.4907C157.442 24.3019 156.627 24.7091 154.999 24.7122C154.183 24.702 153.379 24.5163 152.641 24.1677C151.903 23.8192 151.249 23.3159 150.723 22.6921C149.502 21.3203 148.891 19.3158 148.891 16.6787C148.891 14.0416 149.486 12.0998 150.677 10.8533C151.294 10.2288 152.035 9.73927 152.852 9.4158C153.669 9.09233 154.544 8.94194 155.421 8.97414C156.284 8.98243 157.14 9.12508 157.958 9.39695C158.581 9.53221 159.171 9.78752 159.697 10.1486C159.938 10.3422 160.233 10.457 160.542 10.4775C160.824 10.4775 161.261 10.1627 161.858 9.53789C162.431 8.88896 162.888 8.14494 163.206 7.33926C161.944 6.78445 160.636 6.33963 159.297 6.00975C158.037 5.71255 156.745 5.56901 155.45 5.58224C152.368 5.58224 149.93 6.55941 148.201 8.48555C146.472 10.4117 145.579 12.9909 145.579 16.1056C145.579 19.7747 146.481 22.5887 148.257 24.4632C150.033 26.3377 152.396 27.282 155.304 27.282C155.931 27.294 156.558 27.272 157.183 27.2162H157.244L157.658 27.1786L157.728 27.8786L157.301 27.9162H157.235C156.624 27.9632 155.976 27.9866 155.304 27.9866C152.203 27.9866 149.666 26.9672 147.754 24.9471C145.842 22.927 144.884 19.9626 144.884 16.1056C144.884 12.817 145.824 10.0875 147.703 8.01576C149.582 5.94398 152.213 4.87755 155.501 4.87755C156.852 4.8636 158.199 5.01346 159.513 5.32385C160.886 5.6618 162.227 6.11763 163.521 6.68625C163.788 5.97521 163.996 5.24288 164.141 4.49702C162.763 3.95243 161.351 3.50042 159.913 3.14401C158.273 2.75802 156.593 2.57188 154.909 2.58966C150.888 2.58966 147.707 3.86749 145.448 6.38558C143.188 8.90367 142.028 12.258 142.028 16.317C142.028 21.0995 143.202 24.7733 145.523 27.2162C147.844 29.6591 150.926 30.8994 154.707 30.8994C155.558 30.8994 156.38 30.8665 157.15 30.8101H157.23L157.766 30.7584L157.836 31.4631L157.286 31.5101H157.202C156.417 31.5712 155.576 31.604 154.707 31.604C150.724 31.604 147.463 30.2886 145.011 27.7001C142.559 25.1115 141.323 21.2874 141.323 16.317C141.323 12.0889 142.535 8.57951 144.922 5.91579C147.308 3.25207 150.644 1.88027 154.872 1.88027C156.611 1.86154 158.346 2.054 160.039 2.45342C161.44 2.79908 162.816 3.23534 164.16 3.75944C164.17 3.28914 164.154 2.81864 164.113 2.35006C163.455 1.63598 162.233 1.07223 160.448 0.658811C158.509 0.20317 156.521 -0.0176502 154.529 0.00110102C149.706 0.00110102 145.932 1.5201 143.207 4.55809C140.482 7.59608 139.12 11.5423 139.12 16.3969C139.12 22.1001 140.513 26.4222 143.301 29.3631C146.088 32.304 149.753 33.7761 154.294 33.7792C155.946 33.7904 157.596 33.6789 159.231 33.4456V16.2042Z" fill="#FF0000"/>
<path id="Vector_16" d="M162.219 16.1009L161.139 16.021C160.732 16.0257 160.326 16.0539 159.922 16.1056V33.3235C160.204 33.2718 160.495 33.2248 160.763 33.1685C161.294 33.0463 161.773 32.9242 162.205 32.802L162.219 16.1009Z" fill="#FF0000"/>
<path id="Vector_17" d="M162.985 16.162H162.924V32.6047C163.508 32.435 164.066 32.1868 164.582 31.8672L164.77 17.1626C164.77 16.6788 164.174 16.3499 162.985 16.162Z" fill="#FF0000"/>
<path id="Vector_18" d="M217.829 19.1217C219.211 18.1775 220.314 16.8795 221.023 15.3633C221.789 13.6996 222.174 11.8861 222.151 10.0547C222.151 3.6373 218.032 0.427052 209.795 0.42392H200.822C199.662 0.42392 199.079 0.973577 199.084 2.06819V32.6987C199.084 33.004 199.732 33.2107 201.019 33.3188V2.01652H209.527C213.093 2.01652 215.691 2.66483 217.251 3.93797C218.904 5.15473 219.755 7.07618 219.755 9.64125C219.755 16.1855 215.635 19.9391 208.452 19.9391H207.874V21.9874H209.527L213.943 32.2759C214.244 32.7129 214.654 33.0641 215.131 33.2948C215.609 33.5254 216.139 33.6276 216.668 33.5913C217.073 33.5838 217.475 33.519 217.861 33.3987L211.754 20.7143L212.426 20.4982L218.533 33.1826C219.477 32.7789 220.372 32.2698 221.202 31.6651L215.029 19.6384L215.696 19.3988L221.742 31.2376C222.846 30.4014 223.513 29.6544 223.734 28.9873L217.829 19.1217Z" fill="#FF0000"/>
<path id="Vector_19" d="M203.942 5.67152H209.17V5.7044C211.449 5.75138 213.074 6.14131 214.117 6.91177C215.301 7.68693 215.912 8.92248 215.912 10.5762C215.912 12.5446 215.137 17.1204 207.954 17.1204H207.85V19.2297H208.428C215.16 19.2297 219.027 15.7345 219.027 9.63657C219.027 7.2876 218.294 5.59165 216.795 4.46885C215.297 3.34604 212.901 2.71652 209.528 2.71652H201.734V33.3564C202.274 33.3564 202.894 33.394 203.613 33.394H203.96L203.942 5.67152Z" fill="#FF0000"/>
<path id="Vector_20" d="M207.146 8.23188H208.762C210.171 8.23188 211.214 8.47617 211.825 8.96946C212.159 9.22165 212.425 9.5525 212.6 9.93253C212.769 10.3148 212.843 10.7322 212.816 11.1493C212.816 13.3135 211.198 14.3971 207.963 14.4003H207.869V16.4157H207.973C212.581 16.4157 215.226 14.2875 215.226 10.5761C215.226 9.16677 214.756 8.14732 213.732 7.48961C212.793 6.81311 211.285 6.45137 209.189 6.40439H204.665V33.3893C205.508 33.4133 206.35 33.3136 207.164 33.0933L207.146 8.23188Z" fill="#FF0000"/>
<path id="Vector_21" d="M178.827 0.499084H178.46L170.065 33.2765C170.502 33.2765 171.005 33.3094 171.526 33.3094H172.306L179.823 4.84936L178.827 0.499084Z" fill="#FF0000"/>
<path id="Vector_22" d="M185.042 0.503802C184.323 0.503802 183.492 0.475615 182.538 0.470917L190.459 33.3987H190.848C191.346 33.3987 191.948 33.3987 192.652 33.3329L185.042 0.503802Z" fill="#FF0000"/>
<path id="Vector_23" d="M181.847 0.470917H179.498L180.523 4.8165H180.555V4.87287L187.133 32.8255C187.95 33.1651 188.826 33.3407 189.712 33.3423L181.847 0.470917Z" fill="#FF0000"/>
<path id="Vector_24" d="M188.312 0.84674C188.312 0.68701 187.449 0.578958 185.723 0.522583L193.334 33.2906L194.273 33.2154C195.716 33.0886 196.434 32.9195 196.434 32.6987L188.312 0.84674Z" fill="#FF0000"/>
<path id="Vector_25" d="M180.184 6.28693L172.987 33.2577C174.866 33.1121 175.9 32.6423 176.05 31.8483L177.413 26.0229L181.124 10.3318L180.184 6.28693Z" fill="#FF0000"/>
<path id="Vector_26" d="M177.727 0.531982C176.205 0.593055 175.439 0.69641 175.439 0.846743L167.124 32.6517C167.124 32.7457 167.486 32.8866 168.205 33.0745C168.586 33.1514 168.972 33.2047 169.36 33.2342L177.727 0.531982Z" fill="#FF0000"/>
<path id="Vector_27" d="M179.334 21.5458L179.536 20.2397H183.407L183.609 21.5458H179.334Z" fill="#FF0000"/>
<path id="Vector_28" d="M178.864 23.7209L179.066 22.4149H183.877L184.079 23.7209H178.864Z" fill="#FF0000"/>
<path id="Vector_29" d="M128.676 8.92714C126.99 7.17951 124.73 6.2916 121.963 6.2916C120.711 6.24856 119.465 6.46275 118.299 6.92093C117.134 7.37911 116.075 8.07152 115.188 8.95533C113.46 10.7217 112.581 13.3855 112.581 16.8619C112.581 20.3384 113.45 22.9692 115.16 24.7685C116.03 25.6584 117.076 26.3573 118.231 26.8207C119.386 27.2842 120.625 27.5021 121.869 27.4605C124.622 27.4605 126.891 26.5913 128.62 24.886C130.349 23.1806 131.222 20.4793 131.222 16.8995C131.222 13.3197 130.363 10.6654 128.676 8.92714ZM126.299 22.6545C125.75 23.2867 125.073 23.7944 124.312 24.1436C123.551 24.4928 122.725 24.6754 121.888 24.6793C121.051 24.6799 120.224 24.5055 119.459 24.1672C118.692 23.8274 118.006 23.3276 117.448 22.7015C116.327 21.3547 115.765 19.4442 115.762 16.97C115.758 14.4957 116.338 12.5539 117.5 11.1446C118.308 10.178 119.411 9.50275 120.639 9.22195C121.868 8.94115 123.154 9.07026 124.302 9.58955C125.053 9.93926 125.715 10.4549 126.238 11.0976C127.434 12.4694 128.033 14.4081 128.033 16.9136C128.033 19.4192 127.455 21.3375 126.299 22.6686V22.6545Z" fill="#FF0000"/>
<path id="Vector_30" d="M130.847 6.40908C128.615 4.0977 125.632 2.92792 121.982 2.92792C118.331 2.92792 115.343 4.11179 113.056 6.44666C110.768 8.78153 109.612 12.2909 109.612 16.8714C109.612 21.4518 110.758 24.933 113.018 27.2961C115.278 29.6591 118.28 30.8524 121.878 30.8524C125.477 30.8524 128.507 29.7061 130.804 27.4511C133.102 25.1961 134.243 21.6351 134.243 16.9512C134.243 12.2674 133.078 8.69227 130.847 6.40908ZM129.118 25.3981C127.239 27.2444 124.814 28.1793 121.869 28.1793C120.53 28.2213 119.197 27.9845 117.955 27.4839C116.713 26.9833 115.588 26.2298 114.653 25.2713C112.811 23.3451 111.876 20.5216 111.876 16.8761C111.876 13.2305 112.816 10.3835 114.695 8.47617C115.648 7.526 116.785 6.78077 118.036 6.28633C119.288 5.79189 120.627 5.55867 121.972 5.60104C124.937 5.60104 127.365 6.54062 129.188 8.44798C131.011 10.3553 131.936 13.1694 131.936 16.9371C131.936 20.7049 130.983 23.533 129.118 25.3981Z" fill="#FF0000"/>
<path id="Vector_31" d="M132.754 4.22926C130.029 1.41051 126.443 0.00112915 121.996 0.00112915C117.548 0.00112915 113.931 1.42617 111.144 4.27624C108.356 7.12632 106.962 11.3231 106.962 16.8667C106.962 22.4102 108.34 26.607 111.097 29.4571C113.884 32.3354 117.47 33.7761 121.855 33.7792C126.24 33.7823 129.841 32.4043 132.66 29.645C135.444 26.8576 136.838 22.6295 136.841 16.9606C136.844 11.2918 135.482 7.04802 132.754 4.22926ZM131.269 27.9491C128.845 30.3403 125.684 31.5571 121.874 31.5571C118.064 31.5571 114.925 30.2887 112.506 27.7988C110.087 25.3089 108.889 21.6116 108.889 16.8714C108.889 12.1312 110.115 8.41511 112.534 5.9534C114.954 3.49169 118.172 2.22325 121.982 2.22325C125.792 2.22325 128.986 3.4682 131.349 5.91582C133.712 8.36344 134.915 12.0466 134.915 16.9512C134.915 21.8559 133.689 25.5297 131.269 27.9491Z" fill="#FF0000"/>
<path id="Vector_32" d="M95.4948 12.6479H93.4887C93.1433 12.6811 92.795 12.6295 92.474 12.4976C92.1535 12.363 91.87 12.1535 91.6472 11.8868C91.2475 11.2808 91.0501 10.5637 91.0834 9.83853C91.0834 7.95936 92.272 7.01978 94.6491 7.01978C96.0926 6.96402 97.5321 7.20713 98.8773 7.73386C98.9718 7.77942 99.054 7.8471 99.1169 7.93118C99.1809 8.01319 99.223 8.11022 99.239 8.21305C99.254 8.31753 99.2427 8.42411 99.2061 8.52311C99.1711 8.62131 99.1112 8.70874 99.0323 8.7768C98.9481 8.85405 98.8439 8.90614 98.7316 8.92714C98.6195 8.94676 98.5042 8.93539 98.3981 8.89425C97.1816 8.52287 95.9102 8.36395 94.6397 8.42446C93.7001 8.42446 93.0471 8.5513 92.7183 8.79559C92.5614 8.92051 92.4372 9.08175 92.3565 9.26539C92.2762 9.44534 92.2391 9.64166 92.2485 9.83853C92.2245 10.2029 92.3184 10.5652 92.5163 10.8721C92.6353 11.0105 92.787 11.117 92.9577 11.1818C93.1284 11.2466 93.3125 11.2677 93.4934 11.2432H95.5511C96.9511 11.2209 98.3368 11.5283 99.596 12.1405C100.766 12.7127 101.784 13.5549 102.565 14.5975C103.363 15.6719 103.964 16.8791 104.341 18.1633C104.758 19.5624 104.966 21.0159 104.956 22.476C104.953 23.6736 104.795 24.8657 104.487 26.0229C104.198 27.1156 103.738 28.1557 103.124 29.1047C102.535 30.0295 101.801 30.8529 100.949 31.5429C100.049 32.2517 99.0243 32.7869 97.9283 33.1215C96.7065 33.5216 95.4273 33.7184 94.1418 33.704C92.0825 33.7209 90.0403 33.3297 88.1331 32.553C86.5859 31.9469 85.1744 31.04 83.9801 29.8846C83.9181 29.8234 83.8673 29.7518 83.8298 29.6732C83.7958 29.5921 83.7783 29.5051 83.7783 29.4171C83.7783 29.3292 83.7958 29.2422 83.8298 29.1611C83.8672 29.081 83.9181 29.0079 83.9801 28.945C84.1032 28.8394 84.2615 28.7842 84.4235 28.7903C84.5855 28.7964 84.7392 28.8634 84.8539 28.9779C85.9605 29.9994 87.2543 30.797 88.664 31.3268C90.4082 31.9844 92.2589 32.3141 94.123 32.2993C95.5268 32.3224 96.9211 32.0653 98.2242 31.5429C99.3802 31.073 100.413 30.3451 101.245 29.4148C102.059 28.5105 102.688 27.4555 103.096 26.3095C103.534 25.0841 103.753 23.7913 103.744 22.49C103.768 20.8113 103.448 19.1455 102.805 17.5948C102.216 16.1655 101.24 14.929 99.986 14.0244C98.6744 13.0975 97.1004 12.6151 95.4948 12.6479Z" fill="#FF0000"/>
<path id="Vector_33" d="M94.2591 34H94.0148C91.9593 34.0015 89.9232 33.6025 88.0203 32.8255C86.4437 32.2053 85.0064 31.2774 83.7922 30.096C83.6991 30.0108 83.6255 29.9067 83.576 29.7906C83.5254 29.6719 83.4999 29.5439 83.5009 29.4148C83.5005 29.2873 83.5261 29.161 83.576 29.0437C83.6263 28.9268 83.6999 28.8213 83.7922 28.7336C83.8805 28.6525 83.9842 28.5899 84.0972 28.5496C84.2102 28.5092 84.3301 28.4919 84.4499 28.4987C84.6849 28.5081 84.9079 28.6054 85.0747 28.7712C86.1546 29.7647 87.4165 30.54 88.7907 31.0544C90.5014 31.6999 92.3181 32.0187 94.1464 31.994C95.5135 32.0184 96.8715 31.7676 98.1396 31.2564C99.2367 30.8043 100.217 30.1087 101.005 29.2222C101.795 28.3456 102.405 27.3225 102.8 26.2108C103.228 25.0191 103.443 23.7611 103.434 22.4948C103.449 20.8518 103.13 19.223 102.495 17.7076C101.927 16.3283 100.985 15.1354 99.7745 14.264C98.514 13.3763 97.0032 12.9138 95.4618 12.9439H93.4887C93.0998 12.9746 92.7091 12.9117 92.3495 12.7605C91.9899 12.6093 91.6717 12.3742 91.4216 12.0748C90.9746 11.4122 90.7538 10.6228 90.7921 9.82446C90.7921 8.41509 91.4592 6.72853 94.6491 6.72853C96.1296 6.67015 97.6061 6.9197 98.9852 7.46141C99.1307 7.52494 99.257 7.62534 99.3517 7.75268C99.4455 7.87424 99.5055 8.01851 99.5255 8.17079C99.5516 8.32844 99.537 8.49013 99.4832 8.64059C99.4319 8.78653 99.3427 8.91622 99.2248 9.01642C99.1021 9.13037 98.9485 9.20554 98.7832 9.23252C98.6181 9.26548 98.447 9.25082 98.29 9.19024C97.1142 8.82425 95.8839 8.66529 94.6538 8.72045C93.4887 8.72045 93.0518 8.91776 92.892 9.03521C92.7756 9.12541 92.6835 9.2433 92.6243 9.37816C92.5635 9.51555 92.5346 9.66492 92.5397 9.81507C92.5197 10.1289 92.5985 10.441 92.7652 10.7077C92.8512 10.7883 92.9516 10.8521 93.0612 10.8956C93.1868 10.9437 93.3224 10.9598 93.4558 10.9426H95.5511C96.9955 10.9296 98.4234 11.2512 99.7228 11.8822C100.937 12.473 101.992 13.3461 102.8 14.4284C103.62 15.5305 104.237 16.7697 104.623 18.0881C105.043 19.5139 105.249 20.9943 105.233 22.4807C105.235 23.7018 105.077 24.9178 104.764 26.0981C104.466 27.2222 103.991 28.2913 103.354 29.2645C102.751 30.2171 101.995 31.0645 101.118 31.7732C100.189 32.5064 99.1311 33.0593 97.9987 33.4034C96.7913 33.7975 95.5293 33.9988 94.2591 34ZM94.1417 33.4128C95.3969 33.4265 96.6458 33.2345 97.8389 32.8443C98.9013 32.5203 99.8939 32.0009 100.766 31.3128C101.591 30.6486 102.303 29.8554 102.875 28.9638C103.473 28.0392 103.922 27.0261 104.205 25.9618C104.509 24.8294 104.667 23.6626 104.674 22.4901C104.685 21.0583 104.481 19.6331 104.068 18.2619C103.704 17.0109 103.118 15.8352 102.34 14.7902C101.587 13.7902 100.606 12.9848 99.4785 12.4412C98.2599 11.8487 96.9201 11.548 95.5652 11.5627H93.4887C93.266 11.5851 93.0413 11.5542 92.8329 11.4725C92.6246 11.3908 92.4388 11.2607 92.2907 11.0929C92.0439 10.7265 91.925 10.2889 91.9524 9.84795C91.9426 9.61374 91.9876 9.38046 92.084 9.16675C92.1931 8.94254 92.3541 8.74764 92.5538 8.5983C92.9437 8.30703 93.6296 8.1661 94.6538 8.1661C95.9523 8.09698 97.253 8.25598 98.4967 8.63589C98.5609 8.65608 98.6298 8.65608 98.694 8.63589C98.7516 8.6255 98.8052 8.5995 98.849 8.56072C98.8909 8.52361 98.9231 8.47681 98.9427 8.4244C98.9624 8.37199 98.9689 8.31557 98.9618 8.26005C98.9517 8.20411 98.9292 8.15114 98.896 8.10502C98.8627 8.06084 98.8191 8.02538 98.7691 8.00167C97.4658 7.4921 96.0708 7.25854 94.6726 7.31577C92.4598 7.31577 91.384 8.14261 91.384 9.83856C91.3547 10.5037 91.5355 11.1611 91.9008 11.7177C92.095 11.9379 92.338 12.1096 92.6105 12.2189C92.883 12.3282 93.1773 12.3722 93.4699 12.3472H95.4994C97.1651 12.306 98.8002 12.8 100.164 13.7566C101.465 14.6939 102.477 15.9762 103.087 17.4586C103.743 19.0455 104.071 20.7493 104.05 22.4666C104.053 23.8112 103.818 25.1458 103.354 26.4081C102.939 27.5823 102.301 28.6654 101.475 29.598C100.611 30.5603 99.5395 31.3136 98.3416 31.8014C96.9982 32.3401 95.5607 32.6052 94.1135 32.5812C92.2164 32.5884 90.3335 32.2526 88.5559 31.59C87.111 31.0465 85.7852 30.228 84.6519 29.1799C84.5872 29.1141 84.4998 29.0754 84.4076 29.0719C84.364 29.0688 84.3202 29.0748 84.279 29.0893C84.2378 29.1038 84.2 29.1267 84.168 29.1564C84.1376 29.1874 84.1136 29.2242 84.0975 29.2645C84.0788 29.3074 84.0692 29.3538 84.0693 29.4007C84.0692 29.4491 84.0788 29.497 84.0975 29.5417C84.1169 29.5853 84.144 29.625 84.1774 29.6591C85.3441 30.7888 86.7239 31.6752 88.2364 32.2665C90.1089 33.0378 92.1166 33.4275 94.1417 33.4128Z" fill="#FF0000"/>
<path id="Vector_34" d="M93.4887 14.0526H95.3679C96.3739 14.0071 97.3761 14.2024 98.2913 14.6224C99.2065 15.0425 100.008 15.675 100.63 16.4673C101.938 18.1908 102.612 20.3132 102.537 22.476C102.616 24.7006 101.824 26.8684 100.329 28.5175C98.86 30.1054 96.7961 30.8994 94.1371 30.8994C92.4452 30.9129 90.7647 30.6217 89.1761 30.0396C87.9613 29.6052 86.8369 28.9506 85.8593 28.1088C85.7936 28.0516 85.7408 27.9812 85.7043 27.9021C85.6675 27.8207 85.6468 27.7329 85.6432 27.6437C85.6425 27.5569 85.6584 27.4708 85.6902 27.39C85.723 27.3072 85.7726 27.232 85.8358 27.1692C85.9455 27.0621 86.0905 26.9987 86.2436 26.991C86.3967 26.9832 86.5474 27.0315 86.6674 27.1269C87.5633 27.8599 88.5854 28.4235 89.6834 28.79C91.1126 29.2832 92.6158 29.5279 94.1277 29.5135C96.461 29.5135 98.2431 28.8573 99.4739 27.545C100.745 26.177 101.42 24.3607 101.353 22.4948C101.423 20.6887 100.873 18.913 99.7934 17.4633C98.7661 16.1291 97.2909 15.4604 95.3679 15.4573H93.4887C91.8727 15.4573 90.67 14.9405 89.8526 13.8976C89.0014 12.7204 88.5742 11.2897 88.6405 9.83855C88.6107 9.09773 88.7273 8.35829 88.9836 7.66259C89.24 6.96689 89.631 6.32859 90.1344 5.78424C91.1429 4.74757 92.6463 4.22923 94.6444 4.22923C95.9729 4.21781 97.2949 4.41436 98.5625 4.81177C99.4119 5.06811 100.216 5.45652 100.944 5.96277C101.02 6.02036 101.084 6.09217 101.132 6.17417C101.176 6.25889 101.201 6.35164 101.207 6.44665C101.215 6.54105 101.2 6.63583 101.165 6.72383C101.13 6.81182 101.076 6.8906 101.005 6.95403C100.901 7.04879 100.769 7.1066 100.629 7.11849C100.489 7.13038 100.349 7.09569 100.23 7.0198C98.8741 6.08021 97.0153 5.61042 94.6538 5.61042C92.9861 5.61042 91.7599 6.00035 90.9894 6.7802C90.5997 7.1839 90.2974 7.6637 90.1015 8.18958C89.9061 8.71155 89.8182 9.26765 89.8432 9.82446C89.7888 10.9098 90.0853 11.9838 90.6888 12.8875C91.2525 13.6674 92.1921 14.0526 93.4887 14.0526Z" fill="#FF0000"/>
<path id="Vector_35" d="M94.0242 31.1953C92.3349 31.1956 90.6587 30.8982 89.0726 30.3168C87.8265 29.868 86.6724 29.1962 85.6666 28.3343C85.5693 28.248 85.4909 28.1424 85.4364 28.0242C85.3869 27.9059 85.3615 27.779 85.3615 27.6507C85.3615 27.5225 85.3869 27.3956 85.4364 27.2773C85.4848 27.1591 85.5567 27.052 85.6478 26.9625C85.8084 26.8028 86.0229 26.7089 86.2492 26.6994C86.4744 26.6827 86.6971 26.7553 86.8693 26.9014C87.739 27.6118 88.7308 28.1578 89.7961 28.5128C91.1932 28.9967 92.6632 29.2367 94.1417 29.2222C96.3873 29.2222 98.1161 28.5927 99.2765 27.343C99.8811 26.6951 100.352 25.934 100.661 25.1036C100.971 24.2732 101.113 23.3898 101.081 22.5042C101.148 20.758 100.617 19.0412 99.5772 17.6371C98.6 16.3687 97.2282 15.7579 95.3866 15.7579H93.5075C91.8021 15.7579 90.5008 15.1942 89.6411 14.0855C88.7544 12.8588 88.306 11.3696 88.3679 9.85735C88.3105 8.29581 88.8748 6.77523 89.937 5.62922C91.0035 4.5346 92.5914 3.98025 94.6632 3.98025C96.0149 3.9567 97.3621 4.14373 98.6564 4.5346C99.5344 4.79868 100.365 5.19982 101.118 5.72318C101.229 5.80657 101.322 5.91215 101.391 6.03324C101.458 6.15448 101.499 6.28926 101.508 6.42787C101.516 6.56574 101.494 6.70374 101.443 6.83203C101.392 6.96033 101.313 7.07577 101.212 7.17014C101.059 7.31054 100.864 7.39644 100.658 7.41443C100.453 7.42791 100.249 7.37698 100.075 7.2688C98.7644 6.3621 96.9463 5.9064 94.6585 5.9064C93.0753 5.9064 91.9149 6.26814 91.2055 6.98692C90.8467 7.3605 90.5673 7.80282 90.384 8.28725C90.2008 8.77168 90.1174 9.28819 90.139 9.80568C90.0893 10.8367 90.3691 11.8569 90.9377 12.7184C91.431 13.4043 92.2954 13.7566 93.4934 13.7566H95.3725C96.4229 13.7111 97.469 13.9167 98.4241 14.3563C99.3792 14.7958 100.216 15.4567 100.864 16.2841C102.214 18.0616 102.909 20.2502 102.833 22.4807C102.915 24.7797 102.09 27.019 100.536 28.7148C99.0134 30.3638 96.8571 31.1953 94.1276 31.1953H94.0242ZM86.2774 27.282C86.1959 27.288 86.1192 27.323 86.0613 27.3806C86.0278 27.4147 86.0008 27.4545 85.9814 27.4981C85.97 27.5444 85.97 27.5927 85.9814 27.639C85.9805 27.6865 85.9918 27.7334 86.0143 27.7752C86.0325 27.8195 86.0597 27.8595 86.0941 27.8927C87.0465 28.708 88.1383 29.3446 89.3169 29.7719C90.8742 30.3414 92.5212 30.6262 94.1793 30.6128C96.7396 30.6128 98.7503 29.8423 100.155 28.3249C101.6 26.733 102.366 24.6389 102.288 22.4901C102.359 20.3889 101.705 18.3272 100.437 16.6506C99.2248 15.1049 97.5806 14.3533 95.4101 14.3533H93.5309C92.1216 14.3533 91.1068 13.9164 90.4914 13.0613C89.8512 12.102 89.5366 10.9622 89.5941 9.81037C89.5677 9.22276 89.662 8.63596 89.8713 8.08623C90.0778 7.52588 90.3977 7.01412 90.8109 6.5829C91.6377 5.74667 92.939 5.32385 94.6866 5.32385C97.0967 5.32385 99.0275 5.79365 100.432 6.78491C100.495 6.82113 100.567 6.83752 100.639 6.83189C100.715 6.82631 100.786 6.79478 100.841 6.74263C100.877 6.70786 100.906 6.66636 100.925 6.62048C100.945 6.5729 100.953 6.52141 100.949 6.47015C100.944 6.41785 100.93 6.36686 100.907 6.31981C100.881 6.27483 100.846 6.23626 100.803 6.20706C100.103 5.71788 99.3291 5.3436 98.5108 5.09835C97.2723 4.70897 95.9801 4.51713 94.6819 4.5299C92.7699 4.5299 91.3229 4.9997 90.3786 5.99566C89.4215 7.03941 88.915 8.41874 88.9693 9.83386C88.9073 11.227 89.3161 12.6005 90.1297 13.7331C90.8766 14.6962 92.0088 15.1707 93.5263 15.1707H95.4054C97.4161 15.1707 98.9805 15.8848 100.066 17.2895C101.185 18.7954 101.755 20.6388 101.682 22.5136C101.717 23.4723 101.562 24.4285 101.227 25.3274C100.891 26.2263 100.382 27.0501 99.7275 27.7518C98.445 29.1188 96.5752 29.8141 94.1652 29.8141C92.6207 29.8342 91.0846 29.583 89.627 29.0719C88.4951 28.6953 87.4413 28.1159 86.5169 27.3618C86.4847 27.3327 86.4467 27.3106 86.4055 27.2968C86.3643 27.2831 86.3206 27.278 86.2774 27.282Z" fill="#FF0000"/>
<path id="Vector_36" d="M100.108 1.06284C98.3745 0.352848 96.5178 -0.00795832 94.6445 0.00110609C93.5063 -0.00759218 92.3739 0.16527 91.2902 0.51318C90.3545 0.808232 89.4804 1.27152 88.711 1.88028C87.9784 2.4738 87.3442 3.17936 86.8318 3.97085C86.3097 4.79742 85.9168 5.69884 85.6668 6.64397C85.3983 7.68433 85.2641 8.75475 85.2674 9.82917C85.2536 11.1675 85.4453 12.5 85.8359 13.7801C86.1728 14.9106 86.7089 15.9718 87.4191 16.9136C88.0868 17.774 88.9522 18.4605 89.9419 18.915C91.0535 19.4259 92.2655 19.6812 93.4888 19.6619H95.2834C95.6925 19.6336 96.1021 19.7076 96.4753 19.8774C96.8486 20.0472 97.1736 20.3074 97.421 20.6344C97.7967 21.1735 97.9894 21.8191 97.9706 22.476C97.9779 22.8951 97.8849 23.3099 97.6994 23.6858C97.5139 24.0617 97.2413 24.3878 96.9042 24.637C95.9933 25.3183 94.8977 25.708 93.7613 25.7551H93.3666C91.8745 25.6947 90.4063 25.3602 89.0352 24.7686L88.8472 24.6981L88.6264 24.5994C88.4459 24.5337 88.248 24.5337 88.0674 24.5994C87.8837 24.6568 87.7269 24.7786 87.6258 24.9424C87.5096 25.1112 87.4193 25.2965 87.358 25.4921C87.3014 25.6239 87.2756 25.7669 87.2828 25.9102C87.2909 26.0484 87.3294 26.1832 87.3956 26.3048C87.4629 26.4254 87.5559 26.5296 87.6681 26.6102C88.4224 27.1385 89.2545 27.5458 90.1345 27.8175C91.4359 28.2151 92.7904 28.4115 94.1512 28.4001C96.2324 28.4001 97.8156 27.841 98.8491 26.7464C99.3823 26.1771 99.7976 25.5079 100.071 24.7774C100.344 24.0469 100.47 23.2695 100.442 22.4901C100.504 20.9777 100.056 19.4884 99.1686 18.2619C98.3042 17.1344 97.0028 16.566 95.3022 16.566H93.4888C91.6096 16.566 90.2284 15.96 89.2372 14.7103C88.199 13.3039 87.672 11.5852 87.7432 9.83856C87.6767 8.05473 88.3088 6.31533 89.505 4.9903C90.6794 3.74535 92.413 3.11113 94.6727 3.11113C96.1474 3.10005 97.6135 3.3383 99.0089 3.81582C100.074 4.1642 101.069 4.70038 101.945 5.39902C102.122 5.5401 102.344 5.61255 102.57 5.60306C102.796 5.59357 103.011 5.50276 103.176 5.34735C103.231 5.2917 103.28 5.23027 103.322 5.16413C103.495 4.98561 103.707 4.73192 103.913 4.47353C104.025 4.31845 104.078 4.12837 104.062 3.93785C104.045 3.74732 103.961 3.569 103.824 3.43529C102.751 2.41138 101.489 1.60565 100.108 1.06284Z" fill="#FF0000"/>
</g>
</g>
<defs>
<clipPath id="clip0_0_1">
<rect width="1360" height="2972" fill="white" transform="translate(-154 -24)"/>
</clipPath>
</defs>
</svg>
