<svg width="180" height="81" viewBox="0 0 180 81" fill="none" xmlns="http://www.w3.org/2000/svg">
<g id="Atoms / Logo / Press / #4">
<g id="Logo #4">
<path id="Fill 2" fill-rule="evenodd" clip-rule="evenodd" d="M53.7504 25.2076L51.6719 32.3357H62.363L36.0303 66.9845L42.9602 42.7302H36.426L42.762 14.021H76.2228L67.8083 25.2076H53.7504Z" fill="#505D68"/>
<path id="Fill 3" fill-rule="evenodd" clip-rule="evenodd" d="M81.9335 30.1993C83.1513 30.1993 84.0281 30.3942 84.7588 30.7352L84.3448 33.3901C83.9307 33.1952 83.3461 33.0491 82.6154 33.0491C81.3733 33.0491 80.3015 33.4875 80.0824 34.9002L79.9119 35.8988H83.468L83.0295 38.7485H79.4491L78.0607 47.5899H74.6752L76.0879 38.7485H74.0663L74.5291 35.8988H76.5263L76.7455 34.5592C77.2813 31.1249 79.7414 30.1993 81.9335 30.1993Z" fill="#505D68"/>
<path id="Fill 4" fill-rule="evenodd" clip-rule="evenodd" d="M96.6692 35.8988L94.818 47.59H91.8466L92.0901 46.0798C91.0915 47.2246 89.6789 47.931 88.047 47.931C85.0267 47.931 83.4923 45.7389 83.9307 43.0109L85.0511 35.8988H88.4123L87.3406 42.7917C87.0727 44.3749 87.8521 45.0081 89.0699 45.0081C90.3852 45.0081 91.4812 44.2288 92.1145 43.4494L93.3079 35.8988H96.6692Z" fill="#505D68"/>
<path id="Fill 5" fill-rule="evenodd" clip-rule="evenodd" d="M102.612 53.2893C100.566 53.2893 98.8369 52.8022 97.5947 52.0959L98.0575 49.2461C99.2267 50.0499 100.664 50.4396 102.296 50.4396C104.39 50.4396 106.241 49.5871 106.607 47.322L106.777 46.2503C106.144 47.0297 104.877 47.9309 102.807 47.9309C99.1048 47.9309 97.4243 44.8376 97.9601 41.5251C98.4472 38.4562 100.883 35.5577 104.463 35.5577C106.436 35.5577 107.727 36.4103 108.458 37.7499L108.774 35.8987H111.795L109.992 47.3707C109.31 51.6574 106.046 53.2893 102.612 53.2893ZM103.757 45.0812C105.34 45.0812 106.607 44.1313 107.264 43.0839L107.727 40.2342C107.435 39.2356 106.485 38.4075 105.121 38.4075C103.099 38.4075 101.638 39.8445 101.321 41.8418C101.053 43.5467 101.906 45.0812 103.757 45.0812Z" fill="#505D68"/>
<path id="Fill 6" fill-rule="evenodd" clip-rule="evenodd" d="M112.842 47.5899L114.693 35.8988H118.079L116.228 47.5899H112.842ZM116.837 33.9746C115.716 33.9746 114.815 33.2683 115.034 31.8312C115.229 30.6134 116.155 30.1019 117.153 30.1019C118.298 30.1019 119.175 30.8326 118.956 32.2453C118.761 33.4631 117.835 33.9746 116.837 33.9746Z" fill="#505D68"/>
<path id="Fill 7" fill-rule="evenodd" clip-rule="evenodd" d="M124.289 47.9309C120.587 47.9309 118.907 44.8376 119.442 41.5251C119.93 38.4562 122.317 35.5577 125.946 35.5577C128.089 35.5577 129.356 36.7025 129.965 37.8473L130.281 35.8987H133.253L131.402 47.5899H128.43L128.698 45.8606C127.797 47.0053 126.36 47.9309 124.289 47.9309ZM125.239 45.0812C126.823 45.0812 128.089 44.0825 128.747 43.0352L129.21 40.3073C128.942 39.26 127.992 38.4075 126.603 38.4075C124.582 38.4075 123.12 39.8933 122.804 41.8174C122.536 43.5467 123.388 45.0812 125.239 45.0812Z" fill="#505D68"/>
<path id="Fill 8" fill-rule="evenodd" clip-rule="evenodd" d="M140.925 31.6851L140.268 35.8987H143.97L143.507 38.7485H139.805L139.05 43.4249C138.855 44.6671 139.342 45.0812 140.584 45.0812C141.412 45.0812 142.143 44.935 142.849 44.6428L142.411 47.4194C141.68 47.7361 140.535 47.9309 139.366 47.9309C137.15 47.9309 135.177 46.7861 135.64 43.8877L136.444 38.7485H134.471L134.933 35.8987H136.882L137.442 32.5132L140.925 31.6851Z" fill="#505D68"/>
</g>
</g>
</svg>
