<svg width="180" height="81" viewBox="0 0 180 81" fill="none" xmlns="http://www.w3.org/2000/svg">
<g id="Atoms / Logo / Press / #6">
<g id="Logo #3">
<path id="Fill 1" fill-rule="evenodd" clip-rule="evenodd" d="M40 55.4211V26.6888H57.6019V32.9979H47.6356V37.9803H57.0316V44.1296H47.6356V55.4211H40ZM60.2123 55.4211V35.6096H66.8106V40.278C67.4938 38.5699 68.4182 37.2971 69.5959 36.4472C70.7751 35.5959 72.2022 35.1674 73.8759 35.1674C74.1514 35.1674 74.4324 35.1743 74.7134 35.1936C74.9944 35.2143 75.2754 35.2487 75.5647 35.2887L74.8815 41.6376C74.4668 41.4971 74.0508 41.3966 73.6486 41.3305C73.2408 41.2685 72.8524 41.2354 72.4708 41.2354C70.7751 41.2354 69.4706 41.7575 68.5449 42.7961C67.6275 43.8348 67.166 45.3073 67.166 47.2166V55.4211H60.2123ZM90.5879 42.9642C90.4529 41.8388 90.0245 40.9337 89.3013 40.2505C88.5712 39.5686 87.68 39.2256 86.6151 39.2256C85.4773 39.2256 84.5668 39.5342 83.889 40.1582C83.2196 40.7808 82.7705 41.7189 82.5432 42.9642H90.5879ZM97.4589 46.9011H82.3889C82.4027 48.4302 82.7967 49.6079 83.5681 50.4386C84.345 51.2679 85.436 51.6839 86.8493 51.6839C87.9141 51.6839 88.8054 51.4841 89.5355 51.0888C90.2587 50.6865 90.8152 50.097 91.1968 49.3132L96.4534 51.4304C95.8238 52.9498 94.7136 54.1221 93.1198 54.9458C91.5177 55.7696 89.5616 56.1856 87.2447 56.1856C83.7899 56.1856 81.0155 55.2268 78.9327 53.3121C76.843 51.3891 75.7989 48.8641 75.7989 45.7234C75.7989 42.6363 76.843 40.07 78.9258 38.0272C81.0155 35.9843 83.6549 34.9663 86.8424 34.9663C90.125 34.9663 92.7175 35.9981 94.613 38.0671C96.5085 40.1375 97.4589 42.9711 97.4589 46.5664V46.9011ZM98.4163 53.7749L99.8696 48.4302C100.894 49.32 102.014 50.0019 103.238 50.4854C104.465 50.9607 105.696 51.2031 106.936 51.2031C107.814 51.2031 108.483 51.0612 108.939 50.7802C109.401 50.4992 109.628 50.0901 109.628 49.5542C109.628 48.6781 108.704 48.021 106.855 47.5858C106.253 47.4452 105.764 47.3171 105.402 47.2166C103.305 46.6408 101.791 45.8845 100.841 44.9464C99.8958 44.0152 99.4205 42.7961 99.4205 41.3098C99.4205 39.3813 100.144 37.8467 101.591 36.6951C103.038 35.5421 104.994 34.9663 107.465 34.9663C108.737 34.9663 110.03 35.1137 111.343 35.4085C112.654 35.7047 114.003 36.1593 115.375 36.775L113.922 41.5977C112.997 40.9682 112.054 40.4847 111.094 40.1582C110.138 39.829 109.187 39.6678 108.228 39.6678C107.431 39.6678 106.829 39.7959 106.421 40.0439C106.012 40.2918 105.809 40.6527 105.809 41.1211C105.809 41.825 106.727 42.4214 108.562 42.9105C108.985 43.0234 109.3 43.1116 109.508 43.1653C111.926 43.8554 113.608 44.6709 114.557 45.6021C115.503 46.5416 115.977 47.8075 115.977 49.3999C115.977 51.4235 115.201 53.0641 113.641 54.3094C112.087 55.5629 110.023 56.1856 107.465 56.1856C105.723 56.1856 104.108 55.9845 102.615 55.5891C101.122 55.1869 99.7222 54.5849 98.4163 53.7749ZM118.502 55.4211V25H125.374V35.6771C125.374 36.3797 125.354 37.0367 125.315 37.6387C125.274 38.2421 125.22 38.7848 125.14 39.2669C126.016 37.7861 127.048 36.702 128.234 36.005C129.427 35.3148 130.847 34.9663 132.488 34.9663C133.773 34.9663 134.911 35.1743 135.91 35.5835C136.908 35.9981 137.724 36.5877 138.349 37.3646C138.877 38.0272 139.246 38.844 139.466 39.7959C139.687 40.7533 139.801 42.1804 139.801 44.0758V55.4211H132.809V44.8059C132.809 43.219 132.548 42.0729 132.032 41.3497C131.517 40.6334 130.692 40.2711 129.554 40.2711C128.1 40.2711 127.042 40.807 126.372 41.8787C125.709 42.9504 125.374 44.6916 125.374 47.1036V55.4211H118.502Z" fill="#505D68"/>
<path id="Fill 2" fill-rule="evenodd" clip-rule="evenodd" d="M87.3412 32.1906C89.3496 28.4024 92.1735 26.9547 97.0829 27.0428C95.018 32.3738 92.1294 34.3574 86.4113 34.2541C85.7694 32.2746 84.6288 30.561 82.7251 29.2538C83.1976 28.5374 83.6701 27.8211 84.1439 27.1034C85.8493 28.7041 86.8025 30.4164 87.3412 32.1906Z" fill="#505D68"/>
</g>
</g>
</svg>
