<svg width="180" height="81" viewBox="0 0 180 81" fill="none" xmlns="http://www.w3.org/2000/svg">
<g id="Atoms / Logo / Press / #3_dark">
<g id="Logo #6 Copy">
<path id="Fill 2" fill-rule="evenodd" clip-rule="evenodd" d="M59.6511 47.8708C56.9214 53.0338 51.4944 56.5598 45.2594 56.5598H29.4116V47.8708H59.6511Z" fill="#505D68"/>
<path id="Fill 3" fill-rule="evenodd" clip-rule="evenodd" d="M59.6507 32.7135H28.0118V24.0247H45.2594C51.4944 24.0247 56.921 27.5506 59.6507 32.7135Z" fill="#505D68"/>
<path id="Fill 4" fill-rule="evenodd" clip-rule="evenodd" d="M61.3281 40.2925C61.3281 41.645 61.151 42.9989 60.8003 44.3321H31.7091V36.2529H60.8003C61.151 37.5857 61.3281 38.9395 61.3281 40.2925Z" fill="#505D68"/>
<path id="Fill 5" fill-rule="evenodd" clip-rule="evenodd" d="M82.4562 31.7107V45.9268H80.1377L79.9751 44.5438C79.2022 45.7437 77.9616 46.1505 76.7413 46.1505C73.7924 46.1505 71.5756 44.1981 71.5756 40.9034C71.5756 37.446 73.7517 35.6562 76.6803 35.6562C77.7379 35.6562 79.3852 36.2257 79.9751 37.2629V31.7107H82.4562ZM74.0567 40.9034C74.0567 42.6524 75.3177 43.8524 76.904 43.8524C78.4701 43.8524 79.8123 42.7134 79.8123 40.9034C79.8123 39.1543 78.4701 37.9747 76.904 37.9747C75.3177 37.9747 74.0567 39.0933 74.0567 40.9034Z" fill="#505D68"/>
<path id="Fill 6" fill-rule="evenodd" clip-rule="evenodd" d="M94.7198 35.9003L88.5982 50.1163H85.8729L87.744 45.7641L83.7374 35.9003H86.6254L88.1507 40.2322L89.1066 43.0591L90.1438 40.2932L91.9742 35.9003H94.7198Z" fill="#505D68"/>
<path id="Fill 7" fill-rule="evenodd" clip-rule="evenodd" d="M103.404 45.9268V40.6797C103.404 39.1543 102.57 37.9951 100.984 37.9951C99.4583 37.9951 98.4211 39.2764 98.4211 40.8017V45.9268H95.9602V35.8799H98.177L98.3397 37.2425C99.3566 36.246 100.374 35.7375 101.634 35.7375C103.994 35.7375 105.885 37.507 105.885 40.6593V45.9268H103.404Z" fill="#505D68"/>
<path id="Fill 8" fill-rule="evenodd" clip-rule="evenodd" d="M115.973 35.9002H118.352V45.9268H116.013L115.891 44.4624C115.322 45.642 113.756 46.2115 112.637 46.2318C109.668 46.2521 107.471 44.4218 107.471 40.9033C107.471 37.4459 109.77 35.6358 112.698 35.6562C114.041 35.6562 115.322 36.2866 115.891 37.2832L115.973 35.9002ZM109.953 40.9033C109.953 42.8151 111.275 43.954 112.922 43.954C116.827 43.954 116.827 37.873 112.922 37.873C111.275 37.873 109.953 38.9916 109.953 40.9033Z" fill="#505D68"/>
<path id="Fill 9" fill-rule="evenodd" clip-rule="evenodd" d="M127.312 45.9267V40.5576C127.312 39.2356 126.62 38.0357 125.258 38.0357C123.915 38.0357 123.122 39.2356 123.122 40.5576V45.9267H120.641V35.8799H122.939L123.122 37.1001C123.651 36.0833 124.81 35.7172 125.766 35.7172C126.966 35.7172 128.166 36.2053 128.736 37.5882C129.63 36.1646 130.79 35.7578 132.091 35.7578C134.939 35.7578 136.342 37.5069 136.342 40.5169V45.9267H133.861V40.5169C133.861 39.1949 133.312 38.0764 131.969 38.0764C130.627 38.0764 129.793 39.2356 129.793 40.5576V45.9267H127.312Z" fill="#505D68"/>
<path id="Fill 10" fill-rule="evenodd" clip-rule="evenodd" d="M141.374 33.0733C141.374 35.0054 138.446 35.0054 138.446 33.0733C138.446 31.1412 141.374 31.1412 141.374 33.0733ZM138.669 45.9268H141.15V35.8596H138.669V45.9268Z" fill="#505D68"/>
<path id="Fill 11" fill-rule="evenodd" clip-rule="evenodd" d="M151.99 44.6454C150.831 45.7844 149.611 46.2318 148.126 46.2318C145.218 46.2318 142.798 44.4827 142.798 40.9236C142.798 37.3645 145.218 35.6155 148.126 35.6155C149.55 35.6155 150.648 36.0222 151.746 37.1001L150.18 38.7475C149.591 38.2187 148.858 37.9543 148.167 37.9543C146.499 37.9543 145.279 39.1746 145.279 40.9236C145.279 42.8354 146.581 43.8523 148.126 43.8523C148.919 43.8523 149.713 43.6286 150.323 43.0184L151.99 44.6454Z" fill="#505D68"/>
</g>
</g>
</svg>
