<svg width="180" height="81" viewBox="0 0 180 81" fill="none" xmlns="http://www.w3.org/2000/svg">
<g id="Atoms / Logo / Press / #2">
<g id="Logo #7">
<path id="Fill 2" fill-rule="evenodd" clip-rule="evenodd" d="M28.9094 54.3248C30.0955 56.3811 32.2209 57.6088 34.5948 57.6088H34.5949C37.2869 57.6088 39.7966 56.1611 41.1445 53.8307L44.298 48.3785H28.5959C27.7359 50.2948 27.8403 52.4714 28.9094 54.3248Z" fill="#505D68"/>
<path id="Fill 3" fill-rule="evenodd" clip-rule="evenodd" d="M55.2535 53.8256C56.6008 56.1591 59.1116 57.6088 61.8061 57.6088H61.8077C64.1818 57.6088 66.3078 56.3813 67.4949 54.3252C68.5646 52.4724 68.6702 50.2954 67.8119 48.3785H52.1086L55.2535 53.8256Z" fill="#505D68"/>
<path id="Fill 4" fill-rule="evenodd" clip-rule="evenodd" d="M66.4201 45.8972L60.7813 36.1333H35.6273L29.9884 45.8972H66.4201Z" fill="#505D68"/>
<path id="Fill 5" fill-rule="evenodd" clip-rule="evenodd" d="M48.5101 24.0248H47.9108C44.6498 24.0248 41.6109 25.779 39.98 28.6028L37.0613 33.6521H59.3507L56.4402 28.6018C54.8099 25.779 51.771 24.0248 48.5101 24.0248Z" fill="#505D68"/>
<path id="Fill 6" fill-rule="evenodd" clip-rule="evenodd" d="M78.636 44.5804C78.636 42.629 79.4997 41.1895 81.1311 40.5497C81.8669 40.2618 83.1465 40.1019 84.9698 40.1019H85.9295C86.7293 40.1019 87.433 40.1338 88.0728 40.1978V38.3744C88.0728 36.0393 86.8892 35.2395 84.2021 35.2395C83.0825 35.2395 81.9949 35.3994 80.9072 35.7193C80.4274 35.8473 80.1715 35.8473 80.0755 35.4634L79.9156 34.7916C79.7876 34.4078 79.8836 34.1839 80.2674 34.0879C81.643 33.672 83.0185 33.4481 84.362 33.4481C88.4567 33.4481 90.1521 34.8236 90.1521 38.1505V49.0908C90.1521 49.3467 90.0881 49.4107 89.8002 49.4107H88.7446C88.4567 49.4107 88.3287 49.3148 88.3287 49.0908L88.2647 48.0032H88.2007C87.497 49.1228 86.3774 49.6986 84.8099 49.6986H83.2104C81.8029 49.6986 80.5233 49.2828 79.7876 48.547C79.0199 47.7793 78.636 46.7876 78.636 45.54V44.5804ZM80.7473 45.2841C80.7473 46.2758 80.9712 46.9475 81.419 47.3634C81.8349 47.7473 82.4747 47.9392 83.3704 47.9392H84.6819C86.8252 47.9392 88.0728 46.7876 88.0728 44.6124V41.9572C87.561 41.8933 86.9212 41.8613 86.1534 41.8613H84.362C83.0185 41.8613 82.0908 42.0852 81.547 42.501C81.0032 42.9169 80.7473 43.6207 80.7473 44.6124V45.2841Z" fill="#505D68"/>
<path id="Fill 7" fill-rule="evenodd" clip-rule="evenodd" d="M94.5021 28.1059C94.5021 27.882 94.63 27.754 94.8859 27.754H96.1975C96.4534 27.754 96.5813 27.882 96.5813 28.1059V45.2201C96.5813 46.3717 96.6133 46.7556 96.8692 47.2354C97.0292 47.4594 97.4131 47.5873 98.0209 47.5873H98.8846C99.0765 47.5873 99.2685 47.6193 99.2685 47.9392V49.0268C99.2685 49.2828 99.1725 49.4107 98.9485 49.4107H97.733C96.5813 49.4107 95.7496 49.1548 95.2698 48.675C94.758 48.1311 94.5021 47.1395 94.5021 45.732V28.1059Z" fill="#505D68"/>
<path id="Fill 8" fill-rule="evenodd" clip-rule="evenodd" d="M102.403 29.5135C102.403 28.4899 102.979 28.01 103.875 28.01H104.003C104.93 28.01 105.41 28.5218 105.41 29.5135V29.7054C105.41 30.7291 104.867 31.2409 104.003 31.2409H103.875C102.819 31.2409 102.403 30.7611 102.403 29.7054V29.5135ZM102.883 34.088C102.883 33.864 103.011 33.7361 103.267 33.7361H104.579C104.835 33.7361 104.962 33.864 104.962 34.088V49.1549C104.962 49.3148 104.867 49.4108 104.675 49.4108H103.139C102.979 49.4108 102.883 49.3148 102.883 49.1549V34.088Z" fill="#505D68"/>
<path id="Fill 9" fill-rule="evenodd" clip-rule="evenodd" d="M109.025 40.9975C109.025 35.3355 110.912 33.4481 115.167 33.4481C117.214 33.4481 118.653 34.0879 119.517 35.3675H119.581L119.741 34.1199C119.773 33.864 119.933 33.736 120.221 33.736H120.989C121.34 33.736 121.436 33.8 121.436 34.1519V54.7209C121.436 54.9448 121.34 55.0728 121.117 55.0728H119.677C119.453 55.0728 119.357 54.9448 119.357 54.7209V48.0032H119.293C118.397 49.1228 116.99 49.6986 115.071 49.6986C110.72 49.6986 109.025 47.6193 109.025 42.501V40.9975ZM111.136 42.3411C111.136 44.5164 111.488 46.0198 112.192 46.8196C112.863 47.5873 113.759 47.9072 115.327 47.9072C117.886 47.9072 119.357 46.5957 119.357 44.0685V39.3341C119.357 36.743 117.886 35.2395 115.199 35.2395C113.791 35.2395 112.959 35.5274 112.32 36.1992C111.52 37.0629 111.136 38.7583 111.136 41.2854V42.3411Z" fill="#505D68"/>
<path id="Fill 10" fill-rule="evenodd" clip-rule="evenodd" d="M125.595 34.2479C125.595 33.96 125.787 33.7361 126.043 33.7361H127.226C127.514 33.7361 127.674 33.896 127.674 34.1839V44.6444C127.674 45.9239 127.898 46.6277 128.506 47.1395C129.05 47.6514 130.009 47.9073 131.385 47.9073C132.696 47.9073 133.688 47.6193 134.328 47.0115C134.872 46.4998 135.063 45.9239 135.063 44.6444V34.1519C135.063 33.896 135.223 33.7361 135.447 33.7361H136.791C137.015 33.7361 137.143 33.864 137.143 34.1519V44.9003C137.143 46.5317 136.663 47.7473 135.735 48.547C134.808 49.3468 133.56 49.6987 131.385 49.6987C129.401 49.6987 127.962 49.3148 127.034 48.547C126.075 47.7473 125.595 46.5317 125.595 44.9003V34.2479Z" fill="#505D68"/>
<path id="Fill 11" fill-rule="evenodd" clip-rule="evenodd" d="M140.469 44.5804C140.469 42.629 141.333 41.1895 142.965 40.5497C143.7 40.2618 144.98 40.1019 146.803 40.1019H147.763C148.563 40.1019 149.267 40.1338 149.906 40.1978V38.3744C149.906 36.0393 148.723 35.2395 146.036 35.2395C144.916 35.2395 143.828 35.3994 142.741 35.7193C142.261 35.8473 142.005 35.8473 141.909 35.4634L141.749 34.7916C141.621 34.4078 141.717 34.1839 142.101 34.0879C143.476 33.672 144.852 33.4481 146.196 33.4481C150.29 33.4481 151.986 34.8236 151.986 38.1505V49.0908C151.986 49.3467 151.922 49.4107 151.634 49.4107H150.578C150.29 49.4107 150.162 49.3148 150.162 49.0908L150.098 48.0032H150.034C149.33 49.1228 148.211 49.6986 146.643 49.6986H145.044C143.636 49.6986 142.357 49.2828 141.621 48.547C140.853 47.7793 140.469 46.7876 140.469 45.54V44.5804ZM142.581 45.2841C142.581 46.2758 142.805 46.9475 143.253 47.3634C143.668 47.7473 144.308 47.9392 145.204 47.9392H146.515C148.659 47.9392 149.906 46.7876 149.906 44.6124V41.9572C149.394 41.8933 148.755 41.8613 147.987 41.8613H146.196C144.852 41.8613 143.924 42.0852 143.381 42.501C142.837 42.9169 142.581 43.6207 142.581 44.6124V45.2841Z" fill="#505D68"/>
</g>
</g>
</svg>
